<?xml version="1.0" encoding="UTF-8"?>
<!--Generator: Apple Native CoreSVG 232.5-->
<!DOCTYPE svg
PUBLIC "-//W3C//DTD SVG 1.1//EN"
       "http://www.w3.org/Graphics/SVG/1.1/DTD/svg11.dtd">
<svg version="1.1" xmlns="http://www.w3.org/2000/svg" xmlns:xlink="http://www.w3.org/1999/xlink" width="43.8281" height="41.7334">
 <g>
  <rect height="41.7334" opacity="0" width="43.8281" x="0" y="0"/>
  <path d="M5.15625 23.1152C5.90332 23.1152 6.57715 22.4854 6.57715 21.7383C6.57715 20.9766 5.90332 20.3467 5.15625 20.3467L1.37695 20.3467C0.629883 20.3467 0 20.9912 0 21.7383C0 22.4707 0.629883 23.1152 1.37695 23.1152ZM9.02344 11.0156C9.55078 11.543 10.4297 11.5576 10.9717 11.0156C11.5283 10.459 11.5137 9.60938 10.9717 9.06738L8.32031 6.38672C7.80762 5.84473 6.91406 5.84473 6.35742 6.38672C5.83008 6.92871 5.83008 7.77832 6.35742 8.32031ZM20.3467 5.18555C20.3467 5.93262 20.9619 6.5625 21.709 6.5625C22.4854 6.5625 23.1152 5.93262 23.1152 5.18555L23.1152 1.40625C23.1152 0.644531 22.4707 0 21.709 0C20.9619 0 20.3467 0.644531 20.3467 1.40625ZM32.4463 9.06738C31.9043 9.60938 31.8896 10.459 32.4463 11.0156C32.9883 11.5576 33.8672 11.543 34.3945 11.0156L37.0752 8.32031C37.6172 7.77832 37.6172 6.92871 37.0752 6.38672C36.5186 5.84473 35.6689 5.84473 35.127 6.38672ZM42.0557 23.1152C42.8027 23.1152 43.4619 22.4707 43.4619 21.7383C43.4619 20.9912 42.8027 20.3467 42.0557 20.3467L38.2764 20.3467C37.5293 20.3467 36.8848 20.9766 36.8848 21.7383C36.8848 22.4854 37.5293 23.1152 38.2764 23.1152Z" fill="#ff453a"/>
  <path d="M31.0693 35.9912L33.6621 35.9912L33.6621 22.002C33.6621 15.2051 28.5059 10.0488 21.709 10.0488C14.9414 10.0488 9.7998 15.2051 9.7998 22.002L9.7998 35.9912L12.3926 35.9912L12.3926 22.002C12.3926 16.6406 16.377 12.6416 21.709 12.6416C27.0703 12.6416 31.0693 16.6406 31.0693 22.002ZM36.0498 37.2949C36.7676 37.2949 37.3682 36.7236 37.3682 36.0059C37.3682 35.2881 36.7676 34.6875 36.0498 34.6875L7.38281 34.6875C6.66504 34.6875 6.09375 35.2881 6.09375 36.0059C6.09375 36.7236 6.66504 37.2949 7.38281 37.2949ZM23.0273 22.2363C23.0273 21.5332 22.4268 20.918 21.709 20.918C21.0059 20.918 20.4346 21.5332 20.4346 22.2363L20.4346 35.9912L23.0273 35.9912Z" fill="#000000"/>
 </g>
</svg>
