<?xml version="1.0" encoding="UTF-8"?>
<!--Generator: Apple Native CoreSVG 232.5-->
<!DOCTYPE svg
PUBLIC "-//W3C//DTD SVG 1.1//EN"
       "http://www.w3.org/Graphics/SVG/1.1/DTD/svg11.dtd">
<svg version="1.1" xmlns="http://www.w3.org/2000/svg" xmlns:xlink="http://www.w3.org/1999/xlink" width="36.6827" height="33.6511">
 <g>
  <rect height="33.6511" opacity="0" width="36.6827" x="0" y="0"/>
  <path d="M4.04445 25.0067L6.88625 25.0067L6.88625 9.45009C6.88625 6.11024 8.89309 3.91298 11.7642 3.91298C14.6353 3.91298 16.73 6.05165 16.73 9.45009L16.73 22.4286C16.73 27.6141 19.982 30.9979 24.5523 30.9979C29.1372 30.9979 32.272 27.6141 32.272 22.4286L32.272 6.95985L29.4302 6.95985L29.4302 22.6044C29.4302 25.9442 27.438 28.1415 24.5523 28.1415C21.6812 28.1415 19.5864 26.0175 19.5864 22.6044L19.5864 9.62587C19.5864 4.44032 16.3345 1.07118 11.7642 1.07118C7.17922 1.07118 4.04445 4.44032 4.04445 9.62587ZM1.20266 23.7763C0.0014861 23.7763-0.335428 24.5966 0.353049 25.5487L4.5132 31.4667C5.06985 32.2724 5.87551 32.2577 6.4175 31.4667L10.5777 25.5341C11.2368 24.5966 10.9146 23.7763 9.72805 23.7763ZM26.5884 8.27821L35.1284 8.27821C36.3003 8.27821 36.6372 7.4579 35.978 6.5204L31.8179 0.587781C31.2759-0.188586 30.4702-0.203234 29.8989 0.587781L25.7388 6.50575C25.065 7.4579 25.4019 8.27821 26.5884 8.27821Z" fill="#ff375f"/>
 </g>
</svg>
