<?xml version="1.0" encoding="UTF-8"?>
<!--Generator: Apple Native CoreSVG 232.5-->
<!DOCTYPE svg
PUBLIC "-//W3C//DTD SVG 1.1//EN"
       "http://www.w3.org/Graphics/SVG/1.1/DTD/svg11.dtd">
<svg version="1.1" xmlns="http://www.w3.org/2000/svg" xmlns:xlink="http://www.w3.org/1999/xlink" width="28.8696" height="33.5327">
 <g>
  <rect height="33.5327" opacity="0" width="28.8696" x="0" y="0"/>
  <path d="M14.2578 33.5327C14.7583 33.5327 15.3198 33.3618 15.9302 32.7148L27.5146 20.3003C28.1982 19.5801 28.5156 19.0918 28.5156 18.396C28.5156 17.395 27.7222 16.7114 26.7578 16.7114L20.5933 16.7114L20.5933 3.71094C20.5933 1.34277 19.2749 0 16.9678 0L11.4868 0C9.17969 0 7.87354 1.34277 7.87354 3.71094L7.87354 16.7114L1.68457 16.7114C0.720215 16.7114 0 17.395 0 18.3716C0 19.0674 0.305176 19.6411 0.915527 20.3003L12.5977 32.7148C13.1958 33.3496 13.7573 33.5327 14.2578 33.5327ZM14.2578 31.1401C14.1235 31.1401 14.0015 31.0791 13.8184 30.8838L3.01514 19.4092C2.90527 19.2993 2.85645 19.2017 2.85645 19.104C2.85645 18.9575 2.9541 18.8721 3.11279 18.8721L9.41162 18.8721C9.75342 18.8721 9.91211 18.7256 9.91211 18.3716L9.91211 3.73535C9.91211 2.64893 10.5103 2.03857 11.5845 2.03857L16.8701 2.03857C17.9565 2.03857 18.5547 2.64893 18.5547 3.73535L18.5547 18.3716C18.5547 18.7256 18.7012 18.8721 19.0552 18.8721L25.5127 18.8721C25.6592 18.8721 25.7568 18.9697 25.7568 19.1162C25.7568 19.2383 25.6836 19.3237 25.5981 19.4214L14.6973 30.8838C14.5142 31.0669 14.3921 31.1401 14.2578 31.1401Z" fill="#ff375f"/>
 </g>
</svg>
