<?xml version="1.0" encoding="UTF-8"?>
<!--Generator: Apple Native CoreSVG 232.5-->
<!DOCTYPE svg
PUBLIC "-//W3C//DTD SVG 1.1//EN"
       "http://www.w3.org/Graphics/SVG/1.1/DTD/svg11.dtd">
<svg version="1.1" xmlns="http://www.w3.org/2000/svg" xmlns:xlink="http://www.w3.org/1999/xlink" width="40.3785" height="33.3545">
 <g>
  <rect height="33.3545" opacity="0" width="40.3785" x="0" y="0"/>
  <path d="M30.6702 8.11523C32.9114 8.11523 34.7278 6.31348 34.7278 4.07227C34.7278 1.81641 32.9114 0 30.6702 0C28.4144 0 26.6126 1.81641 26.6126 4.07227C26.6126 6.31348 28.4144 8.11523 30.6702 8.11523ZM17.7942 33.1055C18.9075 33.1055 19.7571 32.2119 19.7571 31.1133L19.7571 22.4707C19.7571 21.6504 19.3909 21.0791 18.9075 20.5811L13.1653 14.8242L20.1087 13.0664C20.4603 12.9785 20.7679 13.2275 20.7679 13.5791L20.7679 17.2852C20.7679 17.7979 20.9583 18.3105 21.3392 18.6768L27.2571 24.6094C28.0189 25.3857 29.2933 25.3857 30.0696 24.6094C30.8167 23.8623 30.846 22.5732 30.0696 21.8115L24.7083 16.4795L24.7083 12.7148L27.6673 16.0986C28.0628 16.5381 28.6048 16.8018 29.1614 16.8018L38.0677 16.8018C39.1517 16.8018 40.0159 15.9229 40.0159 14.8096C40.0159 13.7109 39.1517 12.8613 38.0677 12.8613L30.0696 12.8613L25.3235 7.39746C23.8587 5.71289 21.5882 5.03906 19.4349 5.56641L9.29815 8.11523C5.32842 9.12598 4.63994 14.0479 7.78936 16.6113L15.8167 23.1592L15.8167 31.1133C15.8167 32.2119 16.6956 33.1055 17.7942 33.1055ZM0.582327 32.5195C1.34405 33.2959 2.61846 33.2959 3.39483 32.5195L10.2942 25.6201C10.6605 25.2539 10.763 24.917 10.8802 24.3164L11.3343 21.7529L6.9251 18.1641L6.9251 23.3936L0.582327 29.7217C-0.208688 30.4834-0.179392 31.7578 0.582327 32.5195Z" fill="#bf5af2"/>
 </g>
</svg>
