<?xml version="1.0" encoding="UTF-8"?>
<!--Generator: Apple Native CoreSVG 232.5-->
<!DOCTYPE svg
PUBLIC "-//W3C//DTD SVG 1.1//EN"
       "http://www.w3.org/Graphics/SVG/1.1/DTD/svg11.dtd">
<svg version="1.1" xmlns="http://www.w3.org/2000/svg" xmlns:xlink="http://www.w3.org/1999/xlink" width="51.4453" height="32.2119">
 <g>
  <rect height="32.2119" opacity="0" width="51.4453" x="0" y="0"/>
  <path d="M25.5469 32.2119C40.5908 32.2119 51.0791 19.9365 51.0791 16.1133C51.0791 12.29 40.5322 0.0292969 25.5469 0.0292969C10.708 0.0292969 0 12.29 0 16.1133C0 19.9365 10.6641 32.2119 25.5469 32.2119ZM25.5469 29.6191C12.8467 29.6191 2.85645 18.8525 2.85645 16.1133C2.85645 13.7109 12.8467 2.60742 25.5469 2.60742C38.2324 2.60742 48.2227 13.7109 48.2227 16.1133C48.2227 18.8525 38.2324 29.6191 25.5469 29.6191ZM25.5469 26.6895C31.4062 26.6895 36.1523 21.8701 36.1523 16.1133C36.1523 10.21 31.4062 5.55176 25.5469 5.55176C19.6436 5.55176 14.9268 10.21 14.9268 16.1133C14.9268 21.8701 19.6436 26.6895 25.5469 26.6895ZM25.5615 19.5264C23.6426 19.5264 22.0898 17.9883 22.0898 16.1133C22.0898 14.2236 23.6426 12.6855 25.5615 12.6855C27.4512 12.6855 29.0039 14.2236 29.0039 16.1133C29.0039 17.9883 27.4512 19.5264 25.5615 19.5264Z" fill="#000000"/>
 </g>
</svg>
