<?xml version="1.0" encoding="UTF-8"?>
<!--Generator: Apple Native CoreSVG 232.5-->
<!DOCTYPE svg
PUBLIC "-//W3C//DTD SVG 1.1//EN"
       "http://www.w3.org/Graphics/SVG/1.1/DTD/svg11.dtd">
<svg version="1.1" xmlns="http://www.w3.org/2000/svg" xmlns:xlink="http://www.w3.org/1999/xlink" width="29.6021" height="38.9526">
 <g>
  <rect height="38.9526" opacity="0" width="29.6021" x="0" y="0"/>
  <path d="M7.54395 3.55271e-15C3.36914 3.55271e-15 0 3.36914 0 7.51953C0 9.30176 0.622559 10.9619 1.67236 12.2681C1.9043 12.5488 2.18506 12.6587 2.45361 12.6587C3.125 12.6587 3.68652 11.8774 3.125 11.1938C2.28271 10.1929 1.79443 8.91113 1.79443 7.51953C1.79443 4.3457 4.35791 1.79443 7.54395 1.79443C10.7056 1.79443 13.2568 4.35791 13.2568 7.51953C13.2568 7.61719 13.2568 7.70264 13.2568 7.83691C13.269 8.44727 13.6963 8.71582 14.1235 8.71582C14.5752 8.71582 15.0024 8.39844 15.0391 7.92236C15.0513 7.82471 15.0513 7.70264 15.0513 7.51953C15.0513 3.36914 11.6821 3.55271e-15 7.54395 3.55271e-15Z" fill="#007aff"/>
  <path d="M22.0703 33.8501C28.1006 31.6528 30.8228 26.1597 28.3203 19.2749L27.1973 16.1865C25.9521 12.7808 23.7061 11.3892 21.0083 12.3413C20.2881 11.3892 19.165 11.0474 17.9565 11.499C17.5049 11.6577 17.0898 11.9019 16.7114 12.207C15.9424 11.1938 14.7339 10.8154 13.4766 11.2793C13.1104 11.4014 12.7563 11.6089 12.4268 11.853L10.5957 6.81152C9.93652 5.0293 8.3252 4.29688 6.70166 4.89502C5.05371 5.49316 4.28467 7.09229 4.93164 8.87451L9.55811 21.582C9.58252 21.6553 9.57031 21.7285 9.48486 21.7529C9.43604 21.7773 9.375 21.7529 9.32617 21.6919L7.1167 19.2627C6.21338 18.2983 5.15137 18.0176 4.13818 18.3716C2.75879 18.8721 1.87988 20.2148 2.44141 21.7651C2.6001 22.1802 2.88086 22.6929 3.22266 23.1079L8.59375 29.6143C12.4146 34.2529 16.9922 35.7056 22.0703 33.8501ZM21.4966 32.0801C17.3462 33.5938 13.4521 32.7026 9.96094 28.4912L4.58984 21.9971C4.41895 21.8018 4.29688 21.6187 4.19922 21.3379C4.00391 20.7886 4.24805 20.166 4.89502 19.9219C5.40771 19.7388 5.87158 19.9341 6.29883 20.4102L9.93652 24.2188C10.4736 24.7925 10.9741 24.8657 11.4746 24.6826C12.0605 24.4751 12.3169 23.8647 12.085 23.23L6.604 8.1543C6.33545 7.43408 6.62842 6.78711 7.2998 6.53076C7.97119 6.28662 8.59375 6.61621 8.8501 7.33643L12.7441 18.042C12.915 18.5059 13.4155 18.7378 13.8794 18.5669C14.3311 18.396 14.5508 17.9077 14.3799 17.4438L12.9639 13.562C13.208 13.3301 13.5498 13.1104 13.855 13.0005C14.6606 12.7075 15.332 13.0493 15.6494 13.916L16.8335 17.1875C17.0166 17.7002 17.5293 17.8833 17.9688 17.7124C18.3838 17.5659 18.6646 17.1021 18.4692 16.5894L17.4438 13.7817C17.688 13.5498 18.0298 13.3301 18.335 13.2202C19.1406 12.9272 19.812 13.269 20.1294 14.1357L20.9229 16.3452C21.1182 16.8579 21.6187 17.0288 22.0581 16.8701C22.4854 16.7114 22.7539 16.2598 22.5708 15.7471L21.9238 13.9771C23.3643 13.4521 24.6704 14.5508 25.5859 17.041L26.5503 19.7144C28.7354 25.7202 26.6479 30.2124 21.4966 32.0801Z" fill="#5e5ce6"/>
 </g>
</svg>
