<?xml version="1.0" encoding="UTF-8"?>
<!--Generator: Apple Native CoreSVG 232.5-->
<!DOCTYPE svg
PUBLIC "-//W3C//DTD SVG 1.1//EN"
       "http://www.w3.org/Graphics/SVG/1.1/DTD/svg11.dtd">
<svg version="1.1" xmlns="http://www.w3.org/2000/svg" xmlns:xlink="http://www.w3.org/1999/xlink" width="36.8408" height="36.5186">
 <g>
  <rect height="36.5186" opacity="0" width="36.8408" x="0" y="0"/>
  <path d="M1.30371 11.7773C2.13867 11.7773 2.59277 11.2939 2.59277 10.459L2.59277 5.83008C2.59277 3.7207 3.70605 2.63672 5.75684 2.63672L10.4736 2.63672C11.3086 2.63672 11.792 2.16797 11.792 1.34766C11.792 0.512695 11.3086 0.0439453 10.4736 0.0439453L5.69824 0.0439453C1.91895 0.0439453 0 1.93359 0 5.68359L0 10.459C0 11.2939 0.46875 11.7773 1.30371 11.7773ZM35.1709 11.7773C36.0205 11.7773 36.4746 11.2939 36.4746 10.459L36.4746 5.68359C36.4746 1.96289 34.5703 0.0439453 30.7764 0.0439453L26.001 0.0439453C25.166 0.0439453 24.6826 0.512695 24.6826 1.34766C24.6826 2.16797 25.166 2.63672 26.001 2.63672L30.7178 2.63672C32.7246 2.63672 33.8818 3.7207 33.8818 5.83008L33.8818 10.459C33.8818 11.2939 34.3506 11.7773 35.1709 11.7773ZM5.69824 36.5186L10.4736 36.5186C11.3086 36.5186 11.792 36.0498 11.792 35.2148C11.792 34.3945 11.3086 33.9258 10.4736 33.9258L5.75684 33.9258C3.70605 33.9258 2.59277 32.8418 2.59277 30.7324L2.59277 26.1035C2.59277 25.2686 2.12402 24.7852 1.30371 24.7852C0.454102 24.7852 0 25.2686 0 26.1035L0 30.8789C0 34.6289 1.91895 36.5186 5.69824 36.5186ZM26.001 36.5186L30.7764 36.5186C34.5703 36.5186 36.4746 34.5996 36.4746 30.8789L36.4746 26.1035C36.4746 25.2686 36.0059 24.7852 35.1709 24.7852C34.3359 24.7852 33.8818 25.2686 33.8818 26.1035L33.8818 30.7324C33.8818 32.8418 32.7246 33.9258 30.7178 33.9258L26.001 33.9258C25.166 33.9258 24.6826 34.3945 24.6826 35.2148C24.6826 36.0498 25.166 36.5186 26.001 36.5186Z" fill="#000000"/>
  <path d="M14.6338 10.4883L21.8555 10.4883C22.9102 10.4883 23.54 9.8291 23.54 8.74512L23.54 7.57324C23.54 6.48926 22.9102 5.83008 21.8555 5.83008L14.6338 5.83008C13.5791 5.83008 12.9492 6.48926 12.9492 7.57324L12.9492 8.74512C12.9492 9.8291 13.5791 10.4883 14.6338 10.4883ZM14.8535 12.3779L21.6357 12.3779L21.6357 9.96094L14.8535 9.96094ZM14.3994 30.7324L22.1045 30.7324C24.0967 30.7324 25.3857 29.4434 25.3857 27.3926L25.3857 15.3662C25.3857 13.3154 24.0967 12.0264 22.1045 12.0264L14.3994 12.0264C12.3926 12.0264 11.1182 13.3154 11.1182 15.3662L11.1182 27.3926C11.1182 29.4434 12.3926 30.7324 14.3994 30.7324Z" fill="#bf5af2"/>
 </g>
</svg>
