<?xml version="1.0" encoding="UTF-8"?>
<!--Generator: Apple Native CoreSVG 232.5-->
<!DOCTYPE svg
PUBLIC "-//W3C//DTD SVG 1.1//EN"
       "http://www.w3.org/Graphics/SVG/1.1/DTD/svg11.dtd">
<svg version="1.1" xmlns="http://www.w3.org/2000/svg" xmlns:xlink="http://www.w3.org/1999/xlink" width="48.501" height="34.7021">
 <g>
  <rect height="34.7021" opacity="0" width="48.501" x="0" y="0"/>
  <path d="M11.9971 34.6875L36.1523 34.6875C39.0674 34.6875 40.4443 33.7793 40.4443 31.8164C40.4443 26.8799 34.2188 19.79 24.0674 19.79C13.9307 19.79 7.70508 26.8799 7.70508 31.8164C7.70508 33.7793 9.08203 34.6875 11.9971 34.6875ZM11.2793 32.2412C10.5615 32.2412 10.2979 32.0508 10.2979 31.5234C10.2979 28.1104 15.2637 22.251 24.0674 22.251C32.8857 22.251 37.8516 28.1104 37.8516 31.5234C37.8516 32.0508 37.5879 32.2412 36.8701 32.2412ZM24.0967 17.2998C28.5352 17.2998 32.1094 13.3887 32.1094 8.54004C32.1094 3.7793 28.5352 0 24.0967 0C19.6729 0 16.0693 3.83789 16.0693 8.56934C16.0693 13.4033 19.6582 17.2998 24.0967 17.2998ZM24.0967 14.8535C21.123 14.8535 18.6621 12.0996 18.6621 8.56934C18.6621 5.1416 21.1084 2.44629 24.0967 2.44629C27.085 2.44629 29.5166 5.09766 29.5166 8.54004C29.5166 12.0703 27.0703 14.8535 24.0967 14.8535Z" fill="#000000"/>
  <path d="M0.483398 9.49219L5.36133 13.1396C6.29883 13.8428 7.44141 13.418 7.44141 12.2607L7.44141 9.7998L12.3633 9.7998C13.0811 9.7998 13.6377 9.24316 13.6377 8.54004C13.6377 7.83691 13.0811 7.28027 12.3633 7.28027L7.44141 7.28027L7.44141 4.86328C7.44141 3.64746 6.26953 3.28125 5.36133 3.96973L0.483398 7.61719C-0.161133 8.10059-0.161133 9.00879 0.483398 9.49219ZM34.4971 8.54004C34.4971 9.24316 35.0537 9.7998 35.7715 9.7998L40.6934 9.7998L40.6934 12.2607C40.6934 13.418 41.8359 13.8428 42.7734 13.1396L47.6514 9.49219C48.2959 9.00879 48.2959 8.10059 47.6514 7.61719L42.7734 3.96973C41.8652 3.28125 40.6934 3.64746 40.6934 4.86328L40.6934 7.28027L35.7715 7.28027C35.0537 7.28027 34.4971 7.83691 34.4971 8.54004Z" fill="#ff9f0a"/>
 </g>
</svg>
