<?xml version="1.0" encoding="UTF-8"?>
<!--Generator: Apple Native CoreSVG 232.5-->
<!DOCTYPE svg
PUBLIC "-//W3C//DTD SVG 1.1//EN"
       "http://www.w3.org/Graphics/SVG/1.1/DTD/svg11.dtd">
<svg version="1.1" xmlns="http://www.w3.org/2000/svg" xmlns:xlink="http://www.w3.org/1999/xlink" width="33.1055" height="34.7021">
 <g>
  <rect height="34.7021" opacity="0" width="33.1055" x="0" y="0"/>
  <path d="M4.29199 34.6875L28.4473 34.6875C31.3623 34.6875 32.7393 33.7793 32.7393 31.8164C32.7393 26.8799 26.5137 19.79 16.3623 19.79C6.22559 19.79 0 26.8799 0 31.8164C0 33.7793 1.37695 34.6875 4.29199 34.6875ZM3.57422 32.2412C2.85645 32.2412 2.59277 32.0508 2.59277 31.5234C2.59277 28.1104 7.55859 22.251 16.3623 22.251C25.1807 22.251 30.1465 28.1104 30.1465 31.5234C30.1465 32.0508 29.8828 32.2412 29.165 32.2412ZM16.3916 17.2998C20.8301 17.2998 24.4043 13.3887 24.4043 8.54004C24.4043 3.7793 20.8301 0 16.3916 0C11.9678 0 8.36426 3.83789 8.36426 8.56934C8.36426 13.4033 11.9531 17.2998 16.3916 17.2998ZM16.3916 14.8535C13.418 14.8535 10.957 12.0996 10.957 8.56934C10.957 5.1416 13.4033 2.44629 16.3916 2.44629C19.3799 2.44629 21.8115 5.09766 21.8115 8.54004C21.8115 12.0703 19.3652 14.8535 16.3916 14.8535Z" fill="#000000"/>
 </g>
</svg>
