<?xml version="1.0" encoding="UTF-8"?>
<!--Generator: Apple Native CoreSVG 232.5-->
<!DOCTYPE svg
PUBLIC "-//W3C//DTD SVG 1.1//EN"
       "http://www.w3.org/Graphics/SVG/1.1/DTD/svg11.dtd">
<svg version="1.1" xmlns="http://www.w3.org/2000/svg" xmlns:xlink="http://www.w3.org/1999/xlink" width="44.1943" height="49.0576">
 <g>
  <rect height="49.0576" opacity="0" width="44.1943" x="0" y="0"/>
  <path d="M33.6621 9.68262L33.6621 25.517C33.244 25.4678 32.8184 25.4443 32.3877 25.4443C31.9368 25.4443 31.4914 25.4702 31.0547 25.5264L31.0547 10.0635C31.0547 8.34961 30.1172 7.44141 28.3447 7.44141L15.4834 7.44141C13.6963 7.44141 12.7588 8.34961 12.7588 10.0635L12.7588 38.9648C12.7588 40.6787 13.6963 41.5869 15.4834 41.5869L21.4203 41.5869C21.7809 42.5199 22.2653 43.3911 22.8567 44.1797L15.1611 44.1797C12.0996 44.1797 10.166 42.3047 10.166 39.3457L10.166 9.68262C10.166 6.72363 12.0996 4.84863 15.1611 4.84863L28.6523 4.84863C31.7139 4.84863 33.6621 6.72363 33.6621 9.68262ZM25.3564 9.90234C25.3564 10.5908 24.8291 11.1182 24.1553 11.1182L19.6875 11.1182C18.999 11.1182 18.4717 10.5908 18.4717 9.90234C18.4717 9.24316 18.999 8.71582 19.6875 8.71582L24.1553 8.71582C24.8291 8.71582 25.3564 9.24316 25.3564 9.90234Z" fill="#000000"/>
  <path d="M41.8652 37.251C41.8652 42.4365 37.5293 46.7285 32.3877 46.7285C27.2021 46.7285 22.9102 42.4658 22.9102 37.251C22.9102 32.0654 27.2021 27.7734 32.3877 27.7734C37.5879 27.7734 41.8652 32.0508 41.8652 37.251ZM29.2969 33.2666L29.2969 41.2207C29.2969 41.9385 30.0146 42.2314 30.6445 41.8506L37.1338 38.0127C37.749 37.6465 37.7051 36.8555 37.0459 36.4453L30.6445 32.6221C30.0293 32.2559 29.2969 32.5635 29.2969 33.2666Z" fill="#0a84ff"/>
 </g>
</svg>
