<?xml version="1.0" encoding="UTF-8"?>
<!--Generator: Apple Native CoreSVG 232.5-->
<!DOCTYPE svg
PUBLIC "-//W3C//DTD SVG 1.1//EN"
       "http://www.w3.org/Graphics/SVG/1.1/DTD/svg11.dtd">
<svg version="1.1" xmlns="http://www.w3.org/2000/svg" xmlns:xlink="http://www.w3.org/1999/xlink" width="60.249" height="27.9346">
 <g>
  <rect height="27.9346" opacity="0" width="60.249" x="0" y="0"/>
  <path d="M8.08594 27.9346L10.415 27.9346C11.3965 27.9346 11.8799 27.4658 12.1729 26.7334L22.5879 1.01074C22.8076 0.46875 22.5586 0.0292969 22.002 0.0292969L20.9033 0.0292969C20.3613 0.0292969 19.9951 0.27832 19.7607 0.761719L6.94336 26.1182C6.50391 26.9678 6.82617 27.9346 8.08594 27.9346ZM49.4824 27.9346L51.8115 27.9346C53.0566 27.9346 53.3789 26.9678 52.9395 26.1182L40.1367 0.761719C39.8877 0.27832 39.5361 0.0292969 38.9795 0.0292969L37.8809 0.0292969C37.3242 0.0292969 37.0752 0.46875 37.2949 1.01074L47.71 26.7334C48.0029 27.4658 48.501 27.9346 49.4824 27.9346Z" fill="#0a84ff"/>
  <path d="M1.56738 15.6299L8.29102 11.5283C9.08203 11.0596 9.05273 10.1221 8.29102 9.65332L1.55273 5.52246C0.761719 5.03906 0 5.44922 0 6.37207L0 14.8096C0 15.7471 0.776367 16.1133 1.56738 15.6299ZM58.3301 15.6299C59.1357 16.0986 59.8828 15.7471 59.8828 14.8096L59.8828 6.37207C59.8828 5.44922 59.1357 5.05371 58.3301 5.52246L51.5918 9.65332C50.8301 10.1367 50.8154 11.0449 51.5918 11.5283Z" fill="#000000"/>
 </g>
</svg>
