<svg xmlns="http://www.w3.org/2000/svg" xmlns:xlink="http://www.w3.org/1999/xlink" width="1920" zoomAndPan="magnify" viewBox="0 0 1440 809.999993" height="1080" preserveAspectRatio="xMidYMid meet" version="1.0"><defs><g/><clipPath id="1f8f64d7f1"><path d="M 265.898438 129.878906 L 520.402344 129.878906 L 520.402344 384.382812 L 265.898438 384.382812 Z M 265.898438 129.878906 " clip-rule="nonzero"/></clipPath><clipPath id="7f671d516f"><path d="M 393.148438 129.878906 C 322.871094 129.878906 265.898438 186.851562 265.898438 257.128906 C 265.898438 327.410156 322.871094 384.382812 393.148438 384.382812 C 463.429688 384.382812 520.402344 327.410156 520.402344 257.128906 C 520.402344 186.851562 463.429688 129.878906 393.148438 129.878906 Z M 393.148438 129.878906 " clip-rule="nonzero"/></clipPath><clipPath id="46961fd502"><path d="M 276.609375 140.589844 L 509.6875 140.589844 L 509.6875 373.671875 L 276.609375 373.671875 Z M 276.609375 140.589844 " clip-rule="nonzero"/></clipPath><clipPath id="f44a0ef93b"><path d="M 393.148438 140.589844 C 328.785156 140.589844 276.609375 192.765625 276.609375 257.128906 C 276.609375 321.492188 328.785156 373.671875 393.148438 373.671875 C 457.511719 373.671875 509.6875 321.492188 509.6875 257.128906 C 509.6875 192.765625 457.511719 140.589844 393.148438 140.589844 Z M 393.148438 140.589844 " clip-rule="nonzero"/></clipPath><clipPath id="a40486f517"><path d="M 311.726562 175.707031 L 474.574219 175.707031 L 474.574219 338.554688 L 311.726562 338.554688 Z M 311.726562 175.707031 " clip-rule="nonzero"/></clipPath><clipPath id="b5c905c585"><path d="M 393.148438 175.707031 C 348.179688 175.707031 311.726562 212.160156 311.726562 257.128906 C 311.726562 302.097656 348.179688 338.554688 393.148438 338.554688 C 438.117188 338.554688 474.574219 302.097656 474.574219 257.128906 C 474.574219 212.160156 438.117188 175.707031 393.148438 175.707031 Z M 393.148438 175.707031 " clip-rule="nonzero"/></clipPath><clipPath id="201bda8e33"><path d="M 316.488281 180.46875 L 454.734375 180.46875 L 454.734375 318.714844 L 316.488281 318.714844 Z M 316.488281 180.46875 " clip-rule="nonzero"/></clipPath><clipPath id="3f9482ee61"><path d="M 385.609375 180.46875 C 347.433594 180.46875 316.488281 211.417969 316.488281 249.589844 C 316.488281 287.765625 347.433594 318.714844 385.609375 318.714844 C 423.785156 318.714844 454.734375 287.765625 454.734375 249.589844 C 454.734375 211.417969 423.785156 180.46875 385.609375 180.46875 Z M 385.609375 180.46875 " clip-rule="nonzero"/></clipPath><clipPath id="fdce8f861c"><path d="M 323.796875 186.1875 L 419.1875 186.1875 L 419.1875 281.578125 L 323.796875 281.578125 Z M 323.796875 186.1875 " clip-rule="nonzero"/></clipPath><clipPath id="7e1dce842b"><path d="M 371.492188 186.1875 C 345.148438 186.1875 323.796875 207.542969 323.796875 233.882812 C 323.796875 260.226562 345.148438 281.578125 371.492188 281.578125 C 397.832031 281.578125 419.1875 260.226562 419.1875 233.882812 C 419.1875 207.542969 397.832031 186.1875 371.492188 186.1875 Z M 371.492188 186.1875 " clip-rule="nonzero"/></clipPath><clipPath id="af1dc3bedf"><path d="M 328.558594 193.652344 L 397.910156 193.652344 L 397.910156 263.007812 L 328.558594 263.007812 Z M 328.558594 193.652344 " clip-rule="nonzero"/></clipPath><clipPath id="8a12c70034"><path d="M 363.234375 193.652344 C 344.082031 193.652344 328.558594 209.175781 328.558594 228.328125 C 328.558594 247.480469 344.082031 263.007812 363.234375 263.007812 C 382.386719 263.007812 397.910156 247.480469 397.910156 228.328125 C 397.910156 209.175781 382.386719 193.652344 363.234375 193.652344 Z M 363.234375 193.652344 " clip-rule="nonzero"/></clipPath><clipPath id="08eedff683"><path d="M 554.960938 446.789062 L 770.625 446.789062 L 770.625 459.300781 L 554.960938 459.300781 Z M 554.960938 446.789062 " clip-rule="nonzero"/></clipPath><clipPath id="c8250e62a7"><path d="M 265.898438 129.878906 L 520.402344 129.878906 L 520.402344 384.382812 L 265.898438 384.382812 Z M 265.898438 129.878906 " clip-rule="nonzero"/></clipPath><clipPath id="76ada27efc"><path d="M 393.148438 129.878906 C 322.871094 129.878906 265.898438 186.851562 265.898438 257.128906 C 265.898438 327.410156 322.871094 384.382812 393.148438 384.382812 C 463.429688 384.382812 520.402344 327.410156 520.402344 257.128906 C 520.402344 186.851562 463.429688 129.878906 393.148438 129.878906 Z M 393.148438 129.878906 " clip-rule="nonzero"/></clipPath><clipPath id="a59c441a6b"><path d="M 276.609375 140.589844 L 509.6875 140.589844 L 509.6875 373.671875 L 276.609375 373.671875 Z M 276.609375 140.589844 " clip-rule="nonzero"/></clipPath><clipPath id="9b1ceb4c16"><path d="M 393.148438 140.589844 C 328.785156 140.589844 276.609375 192.765625 276.609375 257.128906 C 276.609375 321.492188 328.785156 373.671875 393.148438 373.671875 C 457.511719 373.671875 509.6875 321.492188 509.6875 257.128906 C 509.6875 192.765625 457.511719 140.589844 393.148438 140.589844 Z M 393.148438 140.589844 " clip-rule="nonzero"/></clipPath><clipPath id="1960faa031"><path d="M 311.726562 175.707031 L 474.574219 175.707031 L 474.574219 338.554688 L 311.726562 338.554688 Z M 311.726562 175.707031 " clip-rule="nonzero"/></clipPath><clipPath id="2a1bee29e1"><path d="M 393.148438 175.707031 C 348.179688 175.707031 311.726562 212.160156 311.726562 257.128906 C 311.726562 302.097656 348.179688 338.554688 393.148438 338.554688 C 438.117188 338.554688 474.574219 302.097656 474.574219 257.128906 C 474.574219 212.160156 438.117188 175.707031 393.148438 175.707031 Z M 393.148438 175.707031 " clip-rule="nonzero"/></clipPath><clipPath id="8497972651"><path d="M 316.488281 180.46875 L 454.734375 180.46875 L 454.734375 318.714844 L 316.488281 318.714844 Z M 316.488281 180.46875 " clip-rule="nonzero"/></clipPath><clipPath id="cd35659790"><path d="M 385.609375 180.46875 C 347.433594 180.46875 316.488281 211.417969 316.488281 249.589844 C 316.488281 287.765625 347.433594 318.714844 385.609375 318.714844 C 423.785156 318.714844 454.734375 287.765625 454.734375 249.589844 C 454.734375 211.417969 423.785156 180.46875 385.609375 180.46875 Z M 385.609375 180.46875 " clip-rule="nonzero"/></clipPath><clipPath id="a4756a1d09"><path d="M 323.796875 186.1875 L 419.1875 186.1875 L 419.1875 281.578125 L 323.796875 281.578125 Z M 323.796875 186.1875 " clip-rule="nonzero"/></clipPath><clipPath id="c494d3b668"><path d="M 371.492188 186.1875 C 345.148438 186.1875 323.796875 207.542969 323.796875 233.882812 C 323.796875 260.226562 345.148438 281.578125 371.492188 281.578125 C 397.832031 281.578125 419.1875 260.226562 419.1875 233.882812 C 419.1875 207.542969 397.832031 186.1875 371.492188 186.1875 Z M 371.492188 186.1875 " clip-rule="nonzero"/></clipPath><clipPath id="a3225ea534"><path d="M 328.558594 193.652344 L 397.910156 193.652344 L 397.910156 263.007812 L 328.558594 263.007812 Z M 328.558594 193.652344 " clip-rule="nonzero"/></clipPath><clipPath id="f84abcaae7"><path d="M 363.234375 193.652344 C 344.082031 193.652344 328.558594 209.175781 328.558594 228.328125 C 328.558594 247.480469 344.082031 263.007812 363.234375 263.007812 C 382.386719 263.007812 397.910156 247.480469 397.910156 228.328125 C 397.910156 209.175781 382.386719 193.652344 363.234375 193.652344 Z M 363.234375 193.652344 " clip-rule="nonzero"/></clipPath></defs><rect x="-144" width="1728" fill="#ffffff" y="-80.999999" height="971.999992" fill-opacity="1"/><rect x="-144" width="1728" fill="#ffffff" y="-80.999999" height="971.999992" fill-opacity="1"/><g fill="#4e4f51" fill-opacity="1"><g transform="translate(550.761215, 256.74791)"><g><path d="M 115.957031 -37.945312 C 115.957031 -44.515625 113.835938 -50.878906 110.023438 -56.8125 C 105.992188 -62.75 100.695312 -67.410156 94.335938 -70.59375 C 90.730469 -72.289062 86.914062 -73.773438 82.675781 -74.832031 C 78.433594 -75.679688 72.921875 -76.738281 66.351562 -77.585938 C 63.808594 -77.800781 60.417969 -78.433594 55.964844 -79.285156 C 51.300781 -80.132812 47.910156 -80.980469 45.578125 -82.25 C 41.761719 -83.945312 38.582031 -86.277344 36.039062 -89.671875 C 33.492188 -93.0625 32.222656 -96.453125 32.222656 -99.847656 C 32.222656 -103.660156 33.707031 -107.476562 36.675781 -110.871094 C 39.640625 -114.050781 43.667969 -116.59375 48.757812 -118.714844 C 53.84375 -120.621094 59.355469 -121.679688 65.292969 -121.679688 C 70.804688 -121.679688 76.316406 -120.621094 81.613281 -118.714844 C 86.703125 -116.59375 90.730469 -114.050781 93.699219 -110.65625 C 96.667969 -107.265625 98.148438 -103.660156 98.148438 -99.847656 L 114.683594 -109.171875 C 111.929688 -116.804688 107.054688 -123.164062 100.058594 -128.675781 C 95.183594 -132.066406 89.882812 -134.824219 83.945312 -136.730469 C 78.011719 -138.429688 71.652344 -139.488281 65.292969 -139.488281 C 51.726562 -139.488281 40.066406 -135.882812 30.101562 -128.675781 C 25.015625 -124.859375 21.199219 -120.621094 18.441406 -115.53125 C 15.6875 -110.445312 14.414062 -105.359375 14.414062 -99.847656 C 14.414062 -92.851562 16.324219 -86.277344 20.5625 -80.34375 C 24.800781 -74.40625 30.527344 -69.742188 37.734375 -66.351562 C 43.246094 -63.382812 52.148438 -61.265625 64.019531 -60.203125 C 74.621094 -58.933594 81.828125 -57.238281 85.855469 -55.117188 C 89.671875 -52.996094 92.851562 -50.242188 94.96875 -47.273438 C 97.089844 -44.304688 98.148438 -41.125 98.148438 -37.945312 C 98.148438 -33.917969 96.667969 -30.3125 93.699219 -27.132812 C 90.730469 -23.742188 86.703125 -20.988281 81.613281 -18.867188 C 76.527344 -16.746094 71.015625 -15.898438 65.292969 -15.898438 C 59.355469 -15.898438 54.058594 -16.960938 48.96875 -19.078125 C 43.882812 -20.988281 39.640625 -23.742188 36.675781 -27.132812 C 33.707031 -30.527344 32.222656 -34.128906 32.222656 -37.945312 L 15.6875 -28.617188 C 18.230469 -20.140625 23.953125 -12.929688 32.644531 -6.996094 C 41.335938 -1.058594 52.148438 1.695312 65.292969 1.695312 C 71.652344 1.695312 78.011719 0.847656 83.945312 -1.058594 C 89.882812 -2.753906 95.394531 -5.511719 100.058594 -9.117188 C 105.144531 -12.71875 108.960938 -16.960938 111.71875 -22.046875 C 114.472656 -27.132812 115.957031 -32.433594 115.957031 -37.945312 Z M 115.957031 -37.945312 "/></g></g></g><g fill="#4e4f51" fill-opacity="1"><g transform="translate(663.749917, 256.74791)"><g><path d="M 104.933594 -26.710938 L 116.59375 0 L 135.882812 0 L 74.621094 -139.488281 L 9.964844 0 L 29.464844 0 L 41.761719 -26.710938 Z M 97.300781 -44.304688 L 49.816406 -44.304688 L 73.984375 -96.667969 Z M 97.300781 -44.304688 "/></g></g></g><g fill="#4e4f51" fill-opacity="1"><g transform="translate(790.941766, 256.74791)"><g><path d="M 18.019531 -138.003906 L 18.019531 0 L 36.039062 0 L 36.039062 -60.203125 L 89.671875 -60.203125 L 89.671875 -78.011719 L 36.039062 -78.011719 L 36.039062 -120.195312 L 106.207031 -120.195312 L 106.207031 -138.003906 Z M 18.019531 -138.003906 "/></g></g></g><g fill="#4e4f51" fill-opacity="1"><g transform="translate(894.815021, 256.74791)"><g><path d="M 18.019531 -138.003906 L 18.019531 0 L 106.207031 0 L 106.207031 -17.59375 L 35.613281 -17.59375 L 35.613281 -60.203125 L 89.671875 -60.203125 L 89.671875 -78.011719 L 35.613281 -78.011719 L 35.613281 -120.195312 L 106.207031 -120.195312 L 106.207031 -138.003906 Z M 18.019531 -138.003906 "/></g></g></g><g fill="#4e4f51" fill-opacity="1"><g transform="translate(539.733872, 427.747902)"><g><path d="M 18.019531 0 L 36.039062 0 L 36.039062 -56.175781 L 68.472656 -56.175781 C 74.40625 -56.175781 80.34375 -57.023438 85.855469 -59.144531 C 91.367188 -61.265625 96.453125 -64.019531 100.695312 -67.835938 C 105.144531 -71.652344 108.539062 -76.101562 111.082031 -81.191406 C 113.625 -86.277344 114.898438 -91.578125 114.898438 -97.300781 C 114.898438 -102.8125 113.625 -108.113281 111.082031 -113.203125 C 108.539062 -118.289062 105.144531 -122.742188 100.695312 -126.554688 C 96.453125 -130.160156 91.367188 -132.917969 85.855469 -135.035156 C 80.34375 -136.945312 74.40625 -138.003906 68.472656 -138.003906 L 18.019531 -138.003906 Z M 36.039062 -73.984375 L 35.613281 -120.195312 L 68.472656 -120.195312 C 73.558594 -120.195312 78.222656 -119.136719 82.675781 -117.015625 C 87.125 -114.898438 90.730469 -112.140625 93.488281 -108.75 C 96.03125 -105.144531 97.300781 -101.328125 97.300781 -97.300781 C 97.300781 -93.0625 95.816406 -89.035156 93.273438 -85.644531 C 90.730469 -82.039062 87.125 -79.285156 82.886719 -77.164062 C 78.433594 -75.042969 73.558594 -73.984375 68.472656 -73.984375 Z M 36.039062 -73.984375 "/></g></g></g><g fill="#4e4f51" fill-opacity="1"><g transform="translate(648.270868, 427.747902)"><g><path d="M 104.933594 -26.710938 L 116.59375 0 L 135.882812 0 L 74.621094 -139.488281 L 9.964844 0 L 29.464844 0 L 41.761719 -26.710938 Z M 97.300781 -44.304688 L 49.816406 -44.304688 L 73.984375 -96.667969 Z M 97.300781 -44.304688 "/></g></g></g><g fill="#4e4f51" fill-opacity="1"><g transform="translate(775.462717, 427.747902)"><g><path d="M 10.8125 -138.003906 L 10.8125 -120.195312 L 57.660156 -120.195312 L 57.660156 0 L 75.679688 0 L 75.679688 -120.195312 L 122.527344 -120.195312 L 122.527344 -138.003906 Z M 10.8125 -138.003906 "/></g></g></g><g fill="#4e4f51" fill-opacity="1"><g transform="translate(890.359333, 427.747902)"><g><path d="M 36.25 -60.203125 L 103.660156 -60.203125 L 103.875 0 L 121.46875 0 L 121.46875 -138.003906 L 103.660156 -138.003906 L 103.660156 -78.011719 L 36.25 -78.011719 L 36.25 -138.003906 L 18.230469 -138.003906 L 18.230469 0 L 36.25 0 Z M 36.25 -60.203125 "/></g></g></g><g clip-path="url(#1f8f64d7f1)"><g clip-path="url(#7f671d516f)"><path fill="#74b7a0" d="M 265.898438 129.878906 L 520.402344 129.878906 L 520.402344 384.382812 L 265.898438 384.382812 Z M 265.898438 129.878906 " fill-opacity="1" fill-rule="nonzero"/></g></g><g clip-path="url(#46961fd502)"><g clip-path="url(#f44a0ef93b)"><path fill="#2e2e2e" d="M 276.609375 140.589844 L 509.6875 140.589844 L 509.6875 373.671875 L 276.609375 373.671875 Z M 276.609375 140.589844 " fill-opacity="1" fill-rule="nonzero"/></g></g><g clip-path="url(#a40486f517)"><g clip-path="url(#b5c905c585)"><path fill="#74b7a0" d="M 311.726562 175.707031 L 474.574219 175.707031 L 474.574219 338.554688 L 311.726562 338.554688 Z M 311.726562 175.707031 " fill-opacity="1" fill-rule="nonzero"/></g></g><g clip-path="url(#201bda8e33)"><g clip-path="url(#3f9482ee61)"><path fill="#2e2e2e" d="M 316.488281 180.46875 L 454.734375 180.46875 L 454.734375 318.714844 L 316.488281 318.714844 Z M 316.488281 180.46875 " fill-opacity="1" fill-rule="nonzero"/></g></g><g clip-path="url(#fdce8f861c)"><g clip-path="url(#7e1dce842b)"><path fill="#74b7a0" d="M 323.796875 186.1875 L 419.1875 186.1875 L 419.1875 281.578125 L 323.796875 281.578125 Z M 323.796875 186.1875 " fill-opacity="1" fill-rule="nonzero"/></g></g><g clip-path="url(#af1dc3bedf)"><g clip-path="url(#8a12c70034)"><path fill="#2e2e2e" d="M 328.558594 193.652344 L 397.910156 193.652344 L 397.910156 263.007812 L 328.558594 263.007812 Z M 328.558594 193.652344 " fill-opacity="1" fill-rule="nonzero"/></g></g><g fill="#4e4f51" fill-opacity="1"><g transform="translate(550.761215, 256.74791)"><g><path d="M 115.957031 -37.945312 C 115.957031 -44.515625 113.835938 -50.878906 110.023438 -56.8125 C 105.992188 -62.75 100.695312 -67.410156 94.335938 -70.59375 C 90.730469 -72.289062 86.914062 -73.773438 82.675781 -74.832031 C 78.433594 -75.679688 72.921875 -76.738281 66.351562 -77.585938 C 63.808594 -77.800781 60.417969 -78.433594 55.964844 -79.285156 C 51.300781 -80.132812 47.910156 -80.980469 45.578125 -82.25 C 41.761719 -83.945312 38.582031 -86.277344 36.039062 -89.671875 C 33.492188 -93.0625 32.222656 -96.453125 32.222656 -99.847656 C 32.222656 -103.660156 33.707031 -107.476562 36.675781 -110.871094 C 39.640625 -114.050781 43.667969 -116.59375 48.757812 -118.714844 C 53.84375 -120.621094 59.355469 -121.679688 65.292969 -121.679688 C 70.804688 -121.679688 76.316406 -120.621094 81.613281 -118.714844 C 86.703125 -116.59375 90.730469 -114.050781 93.699219 -110.65625 C 96.667969 -107.265625 98.148438 -103.660156 98.148438 -99.847656 L 114.683594 -109.171875 C 111.929688 -116.804688 107.054688 -123.164062 100.058594 -128.675781 C 95.183594 -132.066406 89.882812 -134.824219 83.945312 -136.730469 C 78.011719 -138.429688 71.652344 -139.488281 65.292969 -139.488281 C 51.726562 -139.488281 40.066406 -135.882812 30.101562 -128.675781 C 25.015625 -124.859375 21.199219 -120.621094 18.441406 -115.53125 C 15.6875 -110.445312 14.414062 -105.359375 14.414062 -99.847656 C 14.414062 -92.851562 16.324219 -86.277344 20.5625 -80.34375 C 24.800781 -74.40625 30.527344 -69.742188 37.734375 -66.351562 C 43.246094 -63.382812 52.148438 -61.265625 64.019531 -60.203125 C 74.621094 -58.933594 81.828125 -57.238281 85.855469 -55.117188 C 89.671875 -52.996094 92.851562 -50.242188 94.96875 -47.273438 C 97.089844 -44.304688 98.148438 -41.125 98.148438 -37.945312 C 98.148438 -33.917969 96.667969 -30.3125 93.699219 -27.132812 C 90.730469 -23.742188 86.703125 -20.988281 81.613281 -18.867188 C 76.527344 -16.746094 71.015625 -15.898438 65.292969 -15.898438 C 59.355469 -15.898438 54.058594 -16.960938 48.96875 -19.078125 C 43.882812 -20.988281 39.640625 -23.742188 36.675781 -27.132812 C 33.707031 -30.527344 32.222656 -34.128906 32.222656 -37.945312 L 15.6875 -28.617188 C 18.230469 -20.140625 23.953125 -12.929688 32.644531 -6.996094 C 41.335938 -1.058594 52.148438 1.695312 65.292969 1.695312 C 71.652344 1.695312 78.011719 0.847656 83.945312 -1.058594 C 89.882812 -2.753906 95.394531 -5.511719 100.058594 -9.117188 C 105.144531 -12.71875 108.960938 -16.960938 111.71875 -22.046875 C 114.472656 -27.132812 115.957031 -32.433594 115.957031 -37.945312 Z M 115.957031 -37.945312 "/></g></g></g><g fill="#4e4f51" fill-opacity="1"><g transform="translate(663.749917, 256.74791)"><g><path d="M 104.933594 -26.710938 L 116.59375 0 L 135.882812 0 L 74.621094 -139.488281 L 9.964844 0 L 29.464844 0 L 41.761719 -26.710938 Z M 97.300781 -44.304688 L 49.816406 -44.304688 L 73.984375 -96.667969 Z M 97.300781 -44.304688 "/></g></g></g><g fill="#4e4f51" fill-opacity="1"><g transform="translate(790.941766, 256.74791)"><g><path d="M 18.019531 -138.003906 L 18.019531 0 L 36.039062 0 L 36.039062 -60.203125 L 89.671875 -60.203125 L 89.671875 -78.011719 L 36.039062 -78.011719 L 36.039062 -120.195312 L 106.207031 -120.195312 L 106.207031 -138.003906 Z M 18.019531 -138.003906 "/></g></g></g><g fill="#4e4f51" fill-opacity="1"><g transform="translate(894.815021, 256.74791)"><g><path d="M 18.019531 -138.003906 L 18.019531 0 L 106.207031 0 L 106.207031 -17.59375 L 35.613281 -17.59375 L 35.613281 -60.203125 L 89.671875 -60.203125 L 89.671875 -78.011719 L 35.613281 -78.011719 L 35.613281 -120.195312 L 106.207031 -120.195312 L 106.207031 -138.003906 Z M 18.019531 -138.003906 "/></g></g></g><g fill="#4e4f51" fill-opacity="1"><g transform="translate(539.733872, 427.747902)"><g><path d="M 18.019531 0 L 36.039062 0 L 36.039062 -56.175781 L 68.472656 -56.175781 C 74.40625 -56.175781 80.34375 -57.023438 85.855469 -59.144531 C 91.367188 -61.265625 96.453125 -64.019531 100.695312 -67.835938 C 105.144531 -71.652344 108.539062 -76.101562 111.082031 -81.191406 C 113.625 -86.277344 114.898438 -91.578125 114.898438 -97.300781 C 114.898438 -102.8125 113.625 -108.113281 111.082031 -113.203125 C 108.539062 -118.289062 105.144531 -122.742188 100.695312 -126.554688 C 96.453125 -130.160156 91.367188 -132.917969 85.855469 -135.035156 C 80.34375 -136.945312 74.40625 -138.003906 68.472656 -138.003906 L 18.019531 -138.003906 Z M 36.039062 -73.984375 L 35.613281 -120.195312 L 68.472656 -120.195312 C 73.558594 -120.195312 78.222656 -119.136719 82.675781 -117.015625 C 87.125 -114.898438 90.730469 -112.140625 93.488281 -108.75 C 96.03125 -105.144531 97.300781 -101.328125 97.300781 -97.300781 C 97.300781 -93.0625 95.816406 -89.035156 93.273438 -85.644531 C 90.730469 -82.039062 87.125 -79.285156 82.886719 -77.164062 C 78.433594 -75.042969 73.558594 -73.984375 68.472656 -73.984375 Z M 36.039062 -73.984375 "/></g></g></g><g fill="#4e4f51" fill-opacity="1"><g transform="translate(648.270868, 427.747902)"><g><path d="M 104.933594 -26.710938 L 116.59375 0 L 135.882812 0 L 74.621094 -139.488281 L 9.964844 0 L 29.464844 0 L 41.761719 -26.710938 Z M 97.300781 -44.304688 L 49.816406 -44.304688 L 73.984375 -96.667969 Z M 97.300781 -44.304688 "/></g></g></g><g fill="#4e4f51" fill-opacity="1"><g transform="translate(775.462717, 427.747902)"><g><path d="M 10.8125 -138.003906 L 10.8125 -120.195312 L 57.660156 -120.195312 L 57.660156 0 L 75.679688 0 L 75.679688 -120.195312 L 122.527344 -120.195312 L 122.527344 -138.003906 Z M 10.8125 -138.003906 "/></g></g></g><g fill="#4e4f51" fill-opacity="1"><g transform="translate(890.359333, 427.747902)"><g><path d="M 36.25 -60.203125 L 103.660156 -60.203125 L 103.875 0 L 121.46875 0 L 121.46875 -138.003906 L 103.660156 -138.003906 L 103.660156 -78.011719 L 36.25 -78.011719 L 36.25 -138.003906 L 18.230469 -138.003906 L 18.230469 0 L 36.25 0 Z M 36.25 -60.203125 "/></g></g></g><g clip-path="url(#08eedff683)"><path fill="#74b7a0" d="M 554.960938 446.789062 L 770.609375 446.789062 L 770.609375 459.300781 L 554.960938 459.300781 Z M 554.960938 446.789062 " fill-opacity="1" fill-rule="nonzero"/></g><g clip-path="url(#c8250e62a7)"><g clip-path="url(#76ada27efc)"><path fill="#74b7a0" d="M 265.898438 129.878906 L 520.402344 129.878906 L 520.402344 384.382812 L 265.898438 384.382812 Z M 265.898438 129.878906 " fill-opacity="1" fill-rule="nonzero"/></g></g><g clip-path="url(#a59c441a6b)"><g clip-path="url(#9b1ceb4c16)"><path fill="#2e2e2e" d="M 276.609375 140.589844 L 509.6875 140.589844 L 509.6875 373.671875 L 276.609375 373.671875 Z M 276.609375 140.589844 " fill-opacity="1" fill-rule="nonzero"/></g></g><g clip-path="url(#1960faa031)"><g clip-path="url(#2a1bee29e1)"><path fill="#74b7a0" d="M 311.726562 175.707031 L 474.574219 175.707031 L 474.574219 338.554688 L 311.726562 338.554688 Z M 311.726562 175.707031 " fill-opacity="1" fill-rule="nonzero"/></g></g><g fill="#74b7a0" fill-opacity="1"><g transform="translate(835.501785, 458.135022)"><g/></g></g><g fill="#74b7a0" fill-opacity="1"><g transform="translate(839.717044, 458.135022)"><g><path d="M 0.570312 0 L 6.515625 0 C 9.085938 0 10.941406 -1.285156 11.351562 -3.300781 C 11.636719 -4.695312 11.136719 -5.800781 10.101562 -6.355469 C 11.171875 -6.90625 11.871094 -7.816406 12.085938 -8.941406 C 12.511719 -11.03125 11.085938 -12.496094 8.566406 -12.496094 L 3.070312 -12.496094 Z M 3.835938 -2.25 L 4.445312 -5.246094 L 7.085938 -5.246094 C 8.175781 -5.246094 8.691406 -4.695312 8.515625 -3.800781 C 8.316406 -2.839844 7.550781 -2.25 6.425781 -2.25 Z M 4.871094 -7.40625 L 5.445312 -10.246094 L 7.800781 -10.246094 C 8.871094 -10.246094 9.335938 -9.746094 9.175781 -8.871094 C 8.996094 -7.941406 8.265625 -7.40625 7.175781 -7.40625 Z M 4.871094 -7.40625 "/></g></g></g><g fill="#74b7a0" fill-opacity="1"><g transform="translate(852.01023, 458.135022)"><g><path d="M 0.570312 0 L 8.976562 0 L 9.460938 -2.410156 L 3.925781 -2.410156 L 4.480469 -5.140625 L 9.335938 -5.140625 L 9.816406 -7.515625 L 4.945312 -7.515625 L 5.460938 -10.101562 L 10.816406 -10.101562 L 11.28125 -12.496094 L 3.070312 -12.496094 Z M 0.570312 0 "/></g></g></g><g fill="#74b7a0" fill-opacity="1"><g transform="translate(862.840362, 458.135022)"><g/></g></g><g fill="#74b7a0" fill-opacity="1"><g transform="translate(867.033252, 458.135022)"><g><path d="M 3.785156 0 L 6.621094 0 L 7.496094 -4.320312 L 13.761719 -12.496094 L 10.28125 -12.496094 L 8.140625 -9.601562 L 6.445312 -7.335938 L 5.660156 -9.601562 L 4.695312 -12.496094 L 1.730469 -12.496094 L 4.695312 -4.496094 Z M 3.785156 0 "/></g></g></g><g fill="#74b7a0" fill-opacity="1"><g transform="translate(879.379951, 458.135022)"><g><path d="M 6.695312 0.25 C 10.496094 0.25 13.636719 -2.320312 14.386719 -6.03125 C 15.152344 -9.941406 12.832031 -12.746094 8.800781 -12.746094 C 4.996094 -12.746094 1.855469 -10.175781 1.105469 -6.460938 C 0.339844 -2.550781 2.660156 0.25 6.695312 0.25 Z M 3.980469 -6.195312 C 4.425781 -8.460938 6.335938 -10.050781 8.566406 -10.050781 C 10.746094 -10.050781 11.960938 -8.53125 11.511719 -6.300781 C 11.046875 -4.035156 9.15625 -2.445312 6.925781 -2.445312 C 4.730469 -2.445312 3.535156 -3.960938 3.980469 -6.195312 Z M 3.980469 -6.195312 "/></g></g></g><g fill="#74b7a0" fill-opacity="1"><g transform="translate(894.24238, 458.135022)"><g><path d="M 5.890625 0.25 C 9.140625 0.25 11.261719 -1.660156 11.941406 -5.035156 L 13.421875 -12.496094 L 10.53125 -12.496094 L 9.101562 -5.371094 C 8.726562 -3.445312 7.730469 -2.445312 6.121094 -2.445312 C 4.585938 -2.445312 4.015625 -3.375 4.390625 -5.300781 L 5.835938 -12.496094 L 2.945312 -12.496094 L 1.5 -5.265625 C 0.820312 -1.910156 2.535156 0.25 5.890625 0.25 Z M 5.890625 0.25 "/></g></g></g><g fill="#74b7a0" fill-opacity="1"><g transform="translate(907.481187, 458.135022)"><g><path d="M 0.570312 0 L 3.425781 0 L 4.210938 -3.890625 L 6.121094 -3.890625 L 7.585938 0 L 10.78125 0 L 9.085938 -4.300781 C 10.710938 -4.925781 11.816406 -6.210938 12.171875 -7.980469 C 12.726562 -10.710938 11.191406 -12.496094 8.246094 -12.496094 L 3.070312 -12.496094 Z M 4.640625 -6.28125 L 5.410156 -10.066406 L 7.496094 -10.066406 C 9.015625 -10.066406 9.566406 -9.371094 9.316406 -8.210938 C 9.066406 -6.996094 8.175781 -6.28125 6.675781 -6.28125 Z M 4.640625 -6.28125 "/></g></g></g><g fill="#74b7a0" fill-opacity="1"><g transform="translate(920.024156, 458.135022)"><g/></g></g><g fill="#74b7a0" fill-opacity="1"><g transform="translate(924.217046, 458.135022)"><g><path d="M 0.570312 0 L 8.976562 0 L 9.460938 -2.410156 L 3.925781 -2.410156 L 4.480469 -5.140625 L 9.335938 -5.140625 L 9.816406 -7.515625 L 4.945312 -7.515625 L 5.460938 -10.101562 L 10.816406 -10.101562 L 11.28125 -12.496094 L 3.070312 -12.496094 Z M 0.570312 0 "/></g></g></g><g fill="#74b7a0" fill-opacity="1"><g transform="translate(935.047178, 458.135022)"><g><path d="M 3.785156 0 L 6.621094 0 L 7.496094 -4.320312 L 13.761719 -12.496094 L 10.28125 -12.496094 L 8.140625 -9.601562 L 6.445312 -7.335938 L 5.660156 -9.601562 L 4.695312 -12.496094 L 1.730469 -12.496094 L 4.695312 -4.496094 Z M 3.785156 0 "/></g></g></g><g fill="#74b7a0" fill-opacity="1"><g transform="translate(947.393878, 458.135022)"><g><path d="M 0.570312 0 L 8.976562 0 L 9.460938 -2.410156 L 3.925781 -2.410156 L 4.480469 -5.140625 L 9.335938 -5.140625 L 9.816406 -7.515625 L 4.945312 -7.515625 L 5.460938 -10.101562 L 10.816406 -10.101562 L 11.28125 -12.496094 L 3.070312 -12.496094 Z M 0.570312 0 "/></g></g></g><g fill="#74b7a0" fill-opacity="1"><g transform="translate(958.22401, 458.135022)"><g><path d="M 5.050781 0.25 C 8.050781 0.25 9.925781 -1.089844 10.335938 -3.210938 C 10.746094 -5.300781 9.496094 -6.730469 6.695312 -7.355469 C 4.945312 -7.746094 4.375 -8.246094 4.570312 -9.175781 C 4.710938 -9.90625 5.515625 -10.441406 6.675781 -10.441406 C 8.066406 -10.441406 8.640625 -9.691406 8.441406 -8.65625 L 11.191406 -8.65625 C 11.566406 -11.136719 9.925781 -12.746094 6.890625 -12.746094 C 4 -12.746094 2.175781 -11.421875 1.765625 -9.371094 C 1.320312 -7.121094 2.675781 -5.78125 5.425781 -5.210938 C 7.121094 -4.855469 7.65625 -4.300781 7.480469 -3.390625 C 7.316406 -2.605469 6.496094 -2.089844 5.246094 -2.089844 C 3.855469 -2.089844 3.210938 -2.785156 3.410156 -3.960938 L 0.660156 -3.960938 C 0.160156 -1.355469 1.875 0.25 5.050781 0.25 Z M 5.050781 0.25 "/></g></g></g><g clip-path="url(#8497972651)"><g clip-path="url(#cd35659790)"><path fill="#2e2e2e" d="M 316.488281 180.46875 L 454.734375 180.46875 L 454.734375 318.714844 L 316.488281 318.714844 Z M 316.488281 180.46875 " fill-opacity="1" fill-rule="nonzero"/></g></g><g clip-path="url(#a4756a1d09)"><g clip-path="url(#c494d3b668)"><path fill="#74b7a0" d="M 323.796875 186.1875 L 419.1875 186.1875 L 419.1875 281.578125 L 323.796875 281.578125 Z M 323.796875 186.1875 " fill-opacity="1" fill-rule="nonzero"/></g></g><g clip-path="url(#a3225ea534)"><g clip-path="url(#f84abcaae7)"><path fill="#2e2e2e" d="M 328.558594 193.652344 L 397.910156 193.652344 L 397.910156 263.007812 L 328.558594 263.007812 Z M 328.558594 193.652344 " fill-opacity="1" fill-rule="nonzero"/></g></g></svg>