<svg xmlns="http://www.w3.org/2000/svg" xmlns:xlink="http://www.w3.org/1999/xlink" width="1920" zoomAndPan="magnify" viewBox="0 0 1440 809.999993" height="1080" preserveAspectRatio="xMidYMid meet" version="1.0"><defs><clipPath id="a81b8d6825"><path d="M 265.898438 129.878906 L 520.402344 129.878906 L 520.402344 384.382812 L 265.898438 384.382812 Z M 265.898438 129.878906 " clip-rule="nonzero"/></clipPath><clipPath id="c2abd29d1e"><path d="M 393.148438 129.878906 C 322.871094 129.878906 265.898438 186.851562 265.898438 257.128906 C 265.898438 327.410156 322.871094 384.382812 393.148438 384.382812 C 463.429688 384.382812 520.402344 327.410156 520.402344 257.128906 C 520.402344 186.851562 463.429688 129.878906 393.148438 129.878906 Z M 393.148438 129.878906 " clip-rule="nonzero"/></clipPath><clipPath id="9627201ee8"><path d="M 276.609375 140.589844 L 509.6875 140.589844 L 509.6875 373.671875 L 276.609375 373.671875 Z M 276.609375 140.589844 " clip-rule="nonzero"/></clipPath><clipPath id="5d259412b8"><path d="M 393.148438 140.589844 C 328.785156 140.589844 276.609375 192.765625 276.609375 257.128906 C 276.609375 321.492188 328.785156 373.671875 393.148438 373.671875 C 457.511719 373.671875 509.6875 321.492188 509.6875 257.128906 C 509.6875 192.765625 457.511719 140.589844 393.148438 140.589844 Z M 393.148438 140.589844 " clip-rule="nonzero"/></clipPath><clipPath id="3c38db0d45"><path d="M 311.726562 175.707031 L 474.574219 175.707031 L 474.574219 338.554688 L 311.726562 338.554688 Z M 311.726562 175.707031 " clip-rule="nonzero"/></clipPath><clipPath id="dc3f83a6f8"><path d="M 393.148438 175.707031 C 348.179688 175.707031 311.726562 212.160156 311.726562 257.128906 C 311.726562 302.097656 348.179688 338.554688 393.148438 338.554688 C 438.117188 338.554688 474.574219 302.097656 474.574219 257.128906 C 474.574219 212.160156 438.117188 175.707031 393.148438 175.707031 Z M 393.148438 175.707031 " clip-rule="nonzero"/></clipPath><clipPath id="22a66d1c68"><path d="M 316.488281 180.46875 L 454.734375 180.46875 L 454.734375 318.714844 L 316.488281 318.714844 Z M 316.488281 180.46875 " clip-rule="nonzero"/></clipPath><clipPath id="8e4324f260"><path d="M 385.609375 180.46875 C 347.433594 180.46875 316.488281 211.417969 316.488281 249.589844 C 316.488281 287.765625 347.433594 318.714844 385.609375 318.714844 C 423.785156 318.714844 454.734375 287.765625 454.734375 249.589844 C 454.734375 211.417969 423.785156 180.46875 385.609375 180.46875 Z M 385.609375 180.46875 " clip-rule="nonzero"/></clipPath><clipPath id="cc484ae344"><path d="M 323.796875 186.1875 L 419.1875 186.1875 L 419.1875 281.578125 L 323.796875 281.578125 Z M 323.796875 186.1875 " clip-rule="nonzero"/></clipPath><clipPath id="84fb518664"><path d="M 371.492188 186.1875 C 345.148438 186.1875 323.796875 207.542969 323.796875 233.882812 C 323.796875 260.226562 345.148438 281.578125 371.492188 281.578125 C 397.832031 281.578125 419.1875 260.226562 419.1875 233.882812 C 419.1875 207.542969 397.832031 186.1875 371.492188 186.1875 Z M 371.492188 186.1875 " clip-rule="nonzero"/></clipPath><clipPath id="91dd569d3d"><path d="M 328.558594 193.652344 L 397.910156 193.652344 L 397.910156 263.007812 L 328.558594 263.007812 Z M 328.558594 193.652344 " clip-rule="nonzero"/></clipPath><clipPath id="ca4f242089"><path d="M 363.234375 193.652344 C 344.082031 193.652344 328.558594 209.175781 328.558594 228.328125 C 328.558594 247.480469 344.082031 263.007812 363.234375 263.007812 C 382.386719 263.007812 397.910156 247.480469 397.910156 228.328125 C 397.910156 209.175781 382.386719 193.652344 363.234375 193.652344 Z M 363.234375 193.652344 " clip-rule="nonzero"/></clipPath><clipPath id="856ad3ad46"><path d="M 265.898438 129.878906 L 520.402344 129.878906 L 520.402344 384.382812 L 265.898438 384.382812 Z M 265.898438 129.878906 " clip-rule="nonzero"/></clipPath><clipPath id="f15c7d68b8"><path d="M 393.148438 129.878906 C 322.871094 129.878906 265.898438 186.851562 265.898438 257.128906 C 265.898438 327.410156 322.871094 384.382812 393.148438 384.382812 C 463.429688 384.382812 520.402344 327.410156 520.402344 257.128906 C 520.402344 186.851562 463.429688 129.878906 393.148438 129.878906 Z M 393.148438 129.878906 " clip-rule="nonzero"/></clipPath><clipPath id="28b2e43054"><path d="M 276.609375 140.589844 L 509.6875 140.589844 L 509.6875 373.671875 L 276.609375 373.671875 Z M 276.609375 140.589844 " clip-rule="nonzero"/></clipPath><clipPath id="1dc0ecb4f6"><path d="M 393.148438 140.589844 C 328.785156 140.589844 276.609375 192.765625 276.609375 257.128906 C 276.609375 321.492188 328.785156 373.671875 393.148438 373.671875 C 457.511719 373.671875 509.6875 321.492188 509.6875 257.128906 C 509.6875 192.765625 457.511719 140.589844 393.148438 140.589844 Z M 393.148438 140.589844 " clip-rule="nonzero"/></clipPath><clipPath id="4ba970b832"><path d="M 311.726562 175.707031 L 474.574219 175.707031 L 474.574219 338.554688 L 311.726562 338.554688 Z M 311.726562 175.707031 " clip-rule="nonzero"/></clipPath><clipPath id="403294d4a9"><path d="M 393.148438 175.707031 C 348.179688 175.707031 311.726562 212.160156 311.726562 257.128906 C 311.726562 302.097656 348.179688 338.554688 393.148438 338.554688 C 438.117188 338.554688 474.574219 302.097656 474.574219 257.128906 C 474.574219 212.160156 438.117188 175.707031 393.148438 175.707031 Z M 393.148438 175.707031 " clip-rule="nonzero"/></clipPath><clipPath id="841e6beb81"><path d="M 316.488281 180.46875 L 454.734375 180.46875 L 454.734375 318.714844 L 316.488281 318.714844 Z M 316.488281 180.46875 " clip-rule="nonzero"/></clipPath><clipPath id="df1e398f83"><path d="M 385.609375 180.46875 C 347.433594 180.46875 316.488281 211.417969 316.488281 249.589844 C 316.488281 287.765625 347.433594 318.714844 385.609375 318.714844 C 423.785156 318.714844 454.734375 287.765625 454.734375 249.589844 C 454.734375 211.417969 423.785156 180.46875 385.609375 180.46875 Z M 385.609375 180.46875 " clip-rule="nonzero"/></clipPath><clipPath id="8f97d94c8b"><path d="M 323.796875 186.1875 L 419.1875 186.1875 L 419.1875 281.578125 L 323.796875 281.578125 Z M 323.796875 186.1875 " clip-rule="nonzero"/></clipPath><clipPath id="5d3b95c451"><path d="M 371.492188 186.1875 C 345.148438 186.1875 323.796875 207.542969 323.796875 233.882812 C 323.796875 260.226562 345.148438 281.578125 371.492188 281.578125 C 397.832031 281.578125 419.1875 260.226562 419.1875 233.882812 C 419.1875 207.542969 397.832031 186.1875 371.492188 186.1875 Z M 371.492188 186.1875 " clip-rule="nonzero"/></clipPath><clipPath id="d0ae9b7a13"><path d="M 328.558594 193.652344 L 397.910156 193.652344 L 397.910156 263.007812 L 328.558594 263.007812 Z M 328.558594 193.652344 " clip-rule="nonzero"/></clipPath><clipPath id="f3723a7111"><path d="M 363.234375 193.652344 C 344.082031 193.652344 328.558594 209.175781 328.558594 228.328125 C 328.558594 247.480469 344.082031 263.007812 363.234375 263.007812 C 382.386719 263.007812 397.910156 247.480469 397.910156 228.328125 C 397.910156 209.175781 382.386719 193.652344 363.234375 193.652344 Z M 363.234375 193.652344 " clip-rule="nonzero"/></clipPath></defs><g clip-path="url(#a81b8d6825)"><g clip-path="url(#c2abd29d1e)"><path fill="#74b7a0" d="M 265.898438 129.878906 L 520.402344 129.878906 L 520.402344 384.382812 L 265.898438 384.382812 Z M 265.898438 129.878906 " fill-opacity="1" fill-rule="nonzero"/></g></g><g clip-path="url(#9627201ee8)"><g clip-path="url(#5d259412b8)"><path fill="#2e2e2e" d="M 276.609375 140.589844 L 509.6875 140.589844 L 509.6875 373.671875 L 276.609375 373.671875 Z M 276.609375 140.589844 " fill-opacity="1" fill-rule="nonzero"/></g></g><g clip-path="url(#3c38db0d45)"><g clip-path="url(#dc3f83a6f8)"><path fill="#74b7a0" d="M 311.726562 175.707031 L 474.574219 175.707031 L 474.574219 338.554688 L 311.726562 338.554688 Z M 311.726562 175.707031 " fill-opacity="1" fill-rule="nonzero"/></g></g><g clip-path="url(#22a66d1c68)"><g clip-path="url(#8e4324f260)"><path fill="#2e2e2e" d="M 316.488281 180.46875 L 454.734375 180.46875 L 454.734375 318.714844 L 316.488281 318.714844 Z M 316.488281 180.46875 " fill-opacity="1" fill-rule="nonzero"/></g></g><g clip-path="url(#cc484ae344)"><g clip-path="url(#84fb518664)"><path fill="#74b7a0" d="M 323.796875 186.1875 L 419.1875 186.1875 L 419.1875 281.578125 L 323.796875 281.578125 Z M 323.796875 186.1875 " fill-opacity="1" fill-rule="nonzero"/></g></g><g clip-path="url(#91dd569d3d)"><g clip-path="url(#ca4f242089)"><path fill="#2e2e2e" d="M 328.558594 193.652344 L 397.910156 193.652344 L 397.910156 263.007812 L 328.558594 263.007812 Z M 328.558594 193.652344 " fill-opacity="1" fill-rule="nonzero"/></g></g><g clip-path="url(#856ad3ad46)"><g clip-path="url(#f15c7d68b8)"><path fill="#74b7a0" d="M 265.898438 129.878906 L 520.402344 129.878906 L 520.402344 384.382812 L 265.898438 384.382812 Z M 265.898438 129.878906 " fill-opacity="1" fill-rule="nonzero"/></g></g><g clip-path="url(#28b2e43054)"><g clip-path="url(#1dc0ecb4f6)"><path fill="#2e2e2e" d="M 276.609375 140.589844 L 509.6875 140.589844 L 509.6875 373.671875 L 276.609375 373.671875 Z M 276.609375 140.589844 " fill-opacity="1" fill-rule="nonzero"/></g></g><g clip-path="url(#4ba970b832)"><g clip-path="url(#403294d4a9)"><path fill="#74b7a0" d="M 311.726562 175.707031 L 474.574219 175.707031 L 474.574219 338.554688 L 311.726562 338.554688 Z M 311.726562 175.707031 " fill-opacity="1" fill-rule="nonzero"/></g></g><g clip-path="url(#841e6beb81)"><g clip-path="url(#df1e398f83)"><path fill="#2e2e2e" d="M 316.488281 180.46875 L 454.734375 180.46875 L 454.734375 318.714844 L 316.488281 318.714844 Z M 316.488281 180.46875 " fill-opacity="1" fill-rule="nonzero"/></g></g><g clip-path="url(#8f97d94c8b)"><g clip-path="url(#5d3b95c451)"><path fill="#74b7a0" d="M 323.796875 186.1875 L 419.1875 186.1875 L 419.1875 281.578125 L 323.796875 281.578125 Z M 323.796875 186.1875 " fill-opacity="1" fill-rule="nonzero"/></g></g><g clip-path="url(#d0ae9b7a13)"><g clip-path="url(#f3723a7111)"><path fill="#2e2e2e" d="M 328.558594 193.652344 L 397.910156 193.652344 L 397.910156 263.007812 L 328.558594 263.007812 Z M 328.558594 193.652344 " fill-opacity="1" fill-rule="nonzero"/></g></g></svg>