<svg xmlns="http://www.w3.org/2000/svg" xmlns:xlink="http://www.w3.org/1999/xlink" width="1920" zoomAndPan="magnify" viewBox="0 0 1440 809.999993" height="1080" preserveAspectRatio="xMidYMid meet" version="1.0"><defs><clipPath id="121cbfe39a"><path d="M 279.953125 10.207031 L 1069.679688 10.207031 L 1069.679688 799.933594 L 279.953125 799.933594 Z M 279.953125 10.207031 " clip-rule="nonzero"/></clipPath><clipPath id="db240bb135"><path d="M 674.816406 10.207031 C 456.742188 10.207031 279.953125 186.992188 279.953125 405.070312 C 279.953125 623.148438 456.742188 799.933594 674.816406 799.933594 C 892.894531 799.933594 1069.679688 623.148438 1069.679688 405.070312 C 1069.679688 186.992188 892.894531 10.207031 674.816406 10.207031 Z M 674.816406 10.207031 " clip-rule="nonzero"/></clipPath><clipPath id="3d9fb25a67"><path d="M 313.199219 43.449219 L 1036.4375 43.449219 L 1036.4375 766.691406 L 313.199219 766.691406 Z M 313.199219 43.449219 " clip-rule="nonzero"/></clipPath><clipPath id="05f7914e9d"><path d="M 674.816406 43.449219 C 475.101562 43.449219 313.199219 205.351562 313.199219 405.070312 C 313.199219 604.785156 475.101562 766.691406 674.816406 766.691406 C 874.535156 766.691406 1036.4375 604.785156 1036.4375 405.070312 C 1036.4375 205.351562 874.535156 43.449219 674.816406 43.449219 Z M 674.816406 43.449219 " clip-rule="nonzero"/></clipPath><clipPath id="8e00d8b85b"><path d="M 422.164062 152.417969 L 927.472656 152.417969 L 927.472656 657.722656 L 422.164062 657.722656 Z M 422.164062 152.417969 " clip-rule="nonzero"/></clipPath><clipPath id="722b9fd994"><path d="M 674.816406 152.417969 C 535.28125 152.417969 422.164062 265.53125 422.164062 405.070312 C 422.164062 544.605469 535.28125 657.722656 674.816406 657.722656 C 814.355469 657.722656 927.472656 544.605469 927.472656 405.070312 C 927.472656 265.53125 814.355469 152.417969 674.816406 152.417969 Z M 674.816406 152.417969 " clip-rule="nonzero"/></clipPath><clipPath id="1c69149daa"><path d="M 436.9375 167.191406 L 865.910156 167.191406 L 865.910156 596.160156 L 436.9375 596.160156 Z M 436.9375 167.191406 " clip-rule="nonzero"/></clipPath><clipPath id="9b9385040d"><path d="M 651.421875 167.191406 C 532.96875 167.191406 436.9375 263.21875 436.9375 381.675781 C 436.9375 500.132812 532.96875 596.160156 651.421875 596.160156 C 769.878906 596.160156 865.910156 500.132812 865.910156 381.675781 C 865.910156 263.21875 769.878906 167.191406 651.421875 167.191406 Z M 651.421875 167.191406 " clip-rule="nonzero"/></clipPath><clipPath id="e03e7d7db3"><path d="M 459.613281 184.941406 L 755.609375 184.941406 L 755.609375 480.933594 L 459.613281 480.933594 Z M 459.613281 184.941406 " clip-rule="nonzero"/></clipPath><clipPath id="64b07ab161"><path d="M 607.609375 184.941406 C 525.875 184.941406 459.613281 251.203125 459.613281 332.9375 C 459.613281 414.675781 525.875 480.933594 607.609375 480.933594 C 689.347656 480.933594 755.609375 414.675781 755.609375 332.9375 C 755.609375 251.203125 689.347656 184.941406 607.609375 184.941406 Z M 607.609375 184.941406 " clip-rule="nonzero"/></clipPath><clipPath id="de09f61017"><path d="M 474.390625 208.097656 L 689.59375 208.097656 L 689.59375 423.300781 L 474.390625 423.300781 Z M 474.390625 208.097656 " clip-rule="nonzero"/></clipPath><clipPath id="1010169636"><path d="M 581.992188 208.097656 C 522.5625 208.097656 474.390625 256.273438 474.390625 315.699219 C 474.390625 375.128906 522.5625 423.300781 581.992188 423.300781 C 641.417969 423.300781 689.59375 375.128906 689.59375 315.699219 C 689.59375 256.273438 641.417969 208.097656 581.992188 208.097656 Z M 581.992188 208.097656 " clip-rule="nonzero"/></clipPath><clipPath id="debc355ddd"><path d="M 279.953125 10.207031 L 1069.679688 10.207031 L 1069.679688 799.933594 L 279.953125 799.933594 Z M 279.953125 10.207031 " clip-rule="nonzero"/></clipPath><clipPath id="91af23eddc"><path d="M 674.816406 10.207031 C 456.742188 10.207031 279.953125 186.992188 279.953125 405.070312 C 279.953125 623.148438 456.742188 799.933594 674.816406 799.933594 C 892.894531 799.933594 1069.679688 623.148438 1069.679688 405.070312 C 1069.679688 186.992188 892.894531 10.207031 674.816406 10.207031 Z M 674.816406 10.207031 " clip-rule="nonzero"/></clipPath><clipPath id="3593381134"><path d="M 313.199219 43.449219 L 1036.4375 43.449219 L 1036.4375 766.691406 L 313.199219 766.691406 Z M 313.199219 43.449219 " clip-rule="nonzero"/></clipPath><clipPath id="87784ee609"><path d="M 674.816406 43.449219 C 475.101562 43.449219 313.199219 205.351562 313.199219 405.070312 C 313.199219 604.785156 475.101562 766.691406 674.816406 766.691406 C 874.535156 766.691406 1036.4375 604.785156 1036.4375 405.070312 C 1036.4375 205.351562 874.535156 43.449219 674.816406 43.449219 Z M 674.816406 43.449219 " clip-rule="nonzero"/></clipPath><clipPath id="62daab7d59"><path d="M 422.164062 152.417969 L 927.472656 152.417969 L 927.472656 657.722656 L 422.164062 657.722656 Z M 422.164062 152.417969 " clip-rule="nonzero"/></clipPath><clipPath id="792e8b4602"><path d="M 674.816406 152.417969 C 535.28125 152.417969 422.164062 265.53125 422.164062 405.070312 C 422.164062 544.605469 535.28125 657.722656 674.816406 657.722656 C 814.355469 657.722656 927.472656 544.605469 927.472656 405.070312 C 927.472656 265.53125 814.355469 152.417969 674.816406 152.417969 Z M 674.816406 152.417969 " clip-rule="nonzero"/></clipPath><clipPath id="a34ef5035d"><path d="M 436.9375 167.191406 L 865.910156 167.191406 L 865.910156 596.160156 L 436.9375 596.160156 Z M 436.9375 167.191406 " clip-rule="nonzero"/></clipPath><clipPath id="648e6bbd66"><path d="M 651.421875 167.191406 C 532.96875 167.191406 436.9375 263.21875 436.9375 381.675781 C 436.9375 500.132812 532.96875 596.160156 651.421875 596.160156 C 769.878906 596.160156 865.910156 500.132812 865.910156 381.675781 C 865.910156 263.21875 769.878906 167.191406 651.421875 167.191406 Z M 651.421875 167.191406 " clip-rule="nonzero"/></clipPath><clipPath id="f19b030716"><path d="M 459.613281 184.941406 L 755.609375 184.941406 L 755.609375 480.933594 L 459.613281 480.933594 Z M 459.613281 184.941406 " clip-rule="nonzero"/></clipPath><clipPath id="2b333ad120"><path d="M 607.609375 184.941406 C 525.875 184.941406 459.613281 251.203125 459.613281 332.9375 C 459.613281 414.675781 525.875 480.933594 607.609375 480.933594 C 689.347656 480.933594 755.609375 414.675781 755.609375 332.9375 C 755.609375 251.203125 689.347656 184.941406 607.609375 184.941406 Z M 607.609375 184.941406 " clip-rule="nonzero"/></clipPath><clipPath id="4e36b11768"><path d="M 474.390625 208.097656 L 689.59375 208.097656 L 689.59375 423.300781 L 474.390625 423.300781 Z M 474.390625 208.097656 " clip-rule="nonzero"/></clipPath><clipPath id="ccc331135b"><path d="M 581.992188 208.097656 C 522.5625 208.097656 474.390625 256.273438 474.390625 315.699219 C 474.390625 375.128906 522.5625 423.300781 581.992188 423.300781 C 641.417969 423.300781 689.59375 375.128906 689.59375 315.699219 C 689.59375 256.273438 641.417969 208.097656 581.992188 208.097656 Z M 581.992188 208.097656 " clip-rule="nonzero"/></clipPath></defs><g clip-path="url(#121cbfe39a)"><g clip-path="url(#db240bb135)"><path fill="#74b7a0" d="M 279.953125 10.207031 L 1069.679688 10.207031 L 1069.679688 799.933594 L 279.953125 799.933594 Z M 279.953125 10.207031 " fill-opacity="1" fill-rule="nonzero"/></g></g><g clip-path="url(#3d9fb25a67)"><g clip-path="url(#05f7914e9d)"><path fill="#2e2e2e" d="M 313.199219 43.449219 L 1036.4375 43.449219 L 1036.4375 766.691406 L 313.199219 766.691406 Z M 313.199219 43.449219 " fill-opacity="1" fill-rule="nonzero"/></g></g><g clip-path="url(#8e00d8b85b)"><g clip-path="url(#722b9fd994)"><path fill="#74b7a0" d="M 422.164062 152.417969 L 927.472656 152.417969 L 927.472656 657.722656 L 422.164062 657.722656 Z M 422.164062 152.417969 " fill-opacity="1" fill-rule="nonzero"/></g></g><g clip-path="url(#1c69149daa)"><g clip-path="url(#9b9385040d)"><path fill="#2e2e2e" d="M 436.9375 167.191406 L 865.910156 167.191406 L 865.910156 596.160156 L 436.9375 596.160156 Z M 436.9375 167.191406 " fill-opacity="1" fill-rule="nonzero"/></g></g><g clip-path="url(#e03e7d7db3)"><g clip-path="url(#64b07ab161)"><path fill="#74b7a0" d="M 459.613281 184.941406 L 755.609375 184.941406 L 755.609375 480.933594 L 459.613281 480.933594 Z M 459.613281 184.941406 " fill-opacity="1" fill-rule="nonzero"/></g></g><g clip-path="url(#de09f61017)"><g clip-path="url(#1010169636)"><path fill="#2e2e2e" d="M 474.390625 208.097656 L 689.59375 208.097656 L 689.59375 423.300781 L 474.390625 423.300781 Z M 474.390625 208.097656 " fill-opacity="1" fill-rule="nonzero"/></g></g><g clip-path="url(#debc355ddd)"><g clip-path="url(#91af23eddc)"><path fill="#74b7a0" d="M 279.953125 10.207031 L 1069.679688 10.207031 L 1069.679688 799.933594 L 279.953125 799.933594 Z M 279.953125 10.207031 " fill-opacity="1" fill-rule="nonzero"/></g></g><g clip-path="url(#3593381134)"><g clip-path="url(#87784ee609)"><path fill="#2e2e2e" d="M 313.199219 43.449219 L 1036.4375 43.449219 L 1036.4375 766.691406 L 313.199219 766.691406 Z M 313.199219 43.449219 " fill-opacity="1" fill-rule="nonzero"/></g></g><g clip-path="url(#62daab7d59)"><g clip-path="url(#792e8b4602)"><path fill="#74b7a0" d="M 422.164062 152.417969 L 927.472656 152.417969 L 927.472656 657.722656 L 422.164062 657.722656 Z M 422.164062 152.417969 " fill-opacity="1" fill-rule="nonzero"/></g></g><g clip-path="url(#a34ef5035d)"><g clip-path="url(#648e6bbd66)"><path fill="#2e2e2e" d="M 436.9375 167.191406 L 865.910156 167.191406 L 865.910156 596.160156 L 436.9375 596.160156 Z M 436.9375 167.191406 " fill-opacity="1" fill-rule="nonzero"/></g></g><g clip-path="url(#f19b030716)"><g clip-path="url(#2b333ad120)"><path fill="#74b7a0" d="M 459.613281 184.941406 L 755.609375 184.941406 L 755.609375 480.933594 L 459.613281 480.933594 Z M 459.613281 184.941406 " fill-opacity="1" fill-rule="nonzero"/></g></g><g clip-path="url(#4e36b11768)"><g clip-path="url(#ccc331135b)"><path fill="#2e2e2e" d="M 474.390625 208.097656 L 689.59375 208.097656 L 689.59375 423.300781 L 474.390625 423.300781 Z M 474.390625 208.097656 " fill-opacity="1" fill-rule="nonzero"/></g></g></svg>