<svg xmlns="http://www.w3.org/2000/svg" xmlns:xlink="http://www.w3.org/1999/xlink" width="1920" zoomAndPan="magnify" viewBox="0 0 1440 809.999993" height="1080" preserveAspectRatio="xMidYMid meet" version="1.0"><defs><g/><clipPath id="5ba3ee8148"><path d="M 9.902344 193.570312 L 455.753906 193.570312 L 455.753906 639.421875 L 9.902344 639.421875 Z M 9.902344 193.570312 " clip-rule="nonzero"/></clipPath><clipPath id="0d2741d02f"><path d="M 232.828125 193.570312 C 109.710938 193.570312 9.902344 293.378906 9.902344 416.496094 C 9.902344 539.613281 109.710938 639.421875 232.828125 639.421875 C 355.945312 639.421875 455.753906 539.613281 455.753906 416.496094 C 455.753906 293.378906 355.945312 193.570312 232.828125 193.570312 Z M 232.828125 193.570312 " clip-rule="nonzero"/></clipPath><clipPath id="ec81622fca"><path d="M 28.671875 212.339844 L 436.984375 212.339844 L 436.984375 620.652344 L 28.671875 620.652344 Z M 28.671875 212.339844 " clip-rule="nonzero"/></clipPath><clipPath id="97f1171970"><path d="M 232.828125 212.339844 C 120.074219 212.339844 28.671875 303.742188 28.671875 416.496094 C 28.671875 529.25 120.074219 620.652344 232.828125 620.652344 C 345.582031 620.652344 436.984375 529.25 436.984375 416.496094 C 436.984375 303.742188 345.582031 212.339844 232.828125 212.339844 Z M 232.828125 212.339844 " clip-rule="nonzero"/></clipPath><clipPath id="f3c437dd74"><path d="M 90.1875 273.855469 L 375.464844 273.855469 L 375.464844 559.132812 L 90.1875 559.132812 Z M 90.1875 273.855469 " clip-rule="nonzero"/></clipPath><clipPath id="a2ea0d3db3"><path d="M 232.828125 273.855469 C 154.050781 273.855469 90.1875 337.71875 90.1875 416.496094 C 90.1875 495.273438 154.050781 559.132812 232.828125 559.132812 C 311.605469 559.132812 375.464844 495.273438 375.464844 416.496094 C 375.464844 337.71875 311.605469 273.855469 232.828125 273.855469 Z M 232.828125 273.855469 " clip-rule="nonzero"/></clipPath><clipPath id="88d9834158"><path d="M 98.53125 282.199219 L 340.710938 282.199219 L 340.710938 524.378906 L 98.53125 524.378906 Z M 98.53125 282.199219 " clip-rule="nonzero"/></clipPath><clipPath id="7e9a8b7079"><path d="M 219.621094 282.199219 C 152.742188 282.199219 98.53125 336.410156 98.53125 403.289062 C 98.53125 470.164062 152.742188 524.378906 219.621094 524.378906 C 286.496094 524.378906 340.710938 470.164062 340.710938 403.289062 C 340.710938 336.410156 286.496094 282.199219 219.621094 282.199219 Z M 219.621094 282.199219 " clip-rule="nonzero"/></clipPath><clipPath id="460a5e0881"><path d="M 111.332031 292.21875 L 278.4375 292.21875 L 278.4375 459.324219 L 111.332031 459.324219 Z M 111.332031 292.21875 " clip-rule="nonzero"/></clipPath><clipPath id="a4cafb0a1e"><path d="M 194.886719 292.21875 C 148.738281 292.21875 111.332031 329.628906 111.332031 375.773438 C 111.332031 421.917969 148.738281 459.324219 194.886719 459.324219 C 241.03125 459.324219 278.4375 421.917969 278.4375 375.773438 C 278.4375 329.628906 241.03125 292.21875 194.886719 292.21875 Z M 194.886719 292.21875 " clip-rule="nonzero"/></clipPath><clipPath id="b407ccdfb5"><path d="M 119.671875 305.292969 L 241.167969 305.292969 L 241.167969 426.789062 L 119.671875 426.789062 Z M 119.671875 305.292969 " clip-rule="nonzero"/></clipPath><clipPath id="baf70adaad"><path d="M 180.421875 305.292969 C 146.871094 305.292969 119.671875 332.492188 119.671875 366.039062 C 119.671875 399.589844 146.871094 426.789062 180.421875 426.789062 C 213.972656 426.789062 241.167969 399.589844 241.167969 366.039062 C 241.167969 332.492188 213.972656 305.292969 180.421875 305.292969 Z M 180.421875 305.292969 " clip-rule="nonzero"/></clipPath><clipPath id="016fa189ba"><path d="M 516.289062 748.746094 L 894.097656 748.746094 L 894.097656 770.660156 L 516.289062 770.660156 Z M 516.289062 748.746094 " clip-rule="nonzero"/></clipPath><clipPath id="ad4ce996b9"><path d="M 9.902344 193.570312 L 455.753906 193.570312 L 455.753906 639.421875 L 9.902344 639.421875 Z M 9.902344 193.570312 " clip-rule="nonzero"/></clipPath><clipPath id="aae026eb8c"><path d="M 232.828125 193.570312 C 109.710938 193.570312 9.902344 293.378906 9.902344 416.496094 C 9.902344 539.613281 109.710938 639.421875 232.828125 639.421875 C 355.945312 639.421875 455.753906 539.613281 455.753906 416.496094 C 455.753906 293.378906 355.945312 193.570312 232.828125 193.570312 Z M 232.828125 193.570312 " clip-rule="nonzero"/></clipPath><clipPath id="49d2272bf4"><path d="M 28.671875 212.339844 L 436.984375 212.339844 L 436.984375 620.652344 L 28.671875 620.652344 Z M 28.671875 212.339844 " clip-rule="nonzero"/></clipPath><clipPath id="61359ba929"><path d="M 232.828125 212.339844 C 120.074219 212.339844 28.671875 303.742188 28.671875 416.496094 C 28.671875 529.25 120.074219 620.652344 232.828125 620.652344 C 345.582031 620.652344 436.984375 529.25 436.984375 416.496094 C 436.984375 303.742188 345.582031 212.339844 232.828125 212.339844 Z M 232.828125 212.339844 " clip-rule="nonzero"/></clipPath><clipPath id="dbe4b6d478"><path d="M 90.1875 273.855469 L 375.464844 273.855469 L 375.464844 559.132812 L 90.1875 559.132812 Z M 90.1875 273.855469 " clip-rule="nonzero"/></clipPath><clipPath id="cb5c8ce7c3"><path d="M 232.828125 273.855469 C 154.050781 273.855469 90.1875 337.71875 90.1875 416.496094 C 90.1875 495.273438 154.050781 559.132812 232.828125 559.132812 C 311.605469 559.132812 375.464844 495.273438 375.464844 416.496094 C 375.464844 337.71875 311.605469 273.855469 232.828125 273.855469 Z M 232.828125 273.855469 " clip-rule="nonzero"/></clipPath><clipPath id="d69ed06403"><path d="M 98.53125 282.199219 L 340.710938 282.199219 L 340.710938 524.378906 L 98.53125 524.378906 Z M 98.53125 282.199219 " clip-rule="nonzero"/></clipPath><clipPath id="87a47cc20b"><path d="M 219.621094 282.199219 C 152.742188 282.199219 98.53125 336.410156 98.53125 403.289062 C 98.53125 470.164062 152.742188 524.378906 219.621094 524.378906 C 286.496094 524.378906 340.710938 470.164062 340.710938 403.289062 C 340.710938 336.410156 286.496094 282.199219 219.621094 282.199219 Z M 219.621094 282.199219 " clip-rule="nonzero"/></clipPath><clipPath id="a9655502c3"><path d="M 111.332031 292.21875 L 278.4375 292.21875 L 278.4375 459.324219 L 111.332031 459.324219 Z M 111.332031 292.21875 " clip-rule="nonzero"/></clipPath><clipPath id="9942c46251"><path d="M 194.886719 292.21875 C 148.738281 292.21875 111.332031 329.628906 111.332031 375.773438 C 111.332031 421.917969 148.738281 459.324219 194.886719 459.324219 C 241.03125 459.324219 278.4375 421.917969 278.4375 375.773438 C 278.4375 329.628906 241.03125 292.21875 194.886719 292.21875 Z M 194.886719 292.21875 " clip-rule="nonzero"/></clipPath><clipPath id="06d942fb75"><path d="M 119.671875 305.292969 L 241.167969 305.292969 L 241.167969 426.789062 L 119.671875 426.789062 Z M 119.671875 305.292969 " clip-rule="nonzero"/></clipPath><clipPath id="9a0cd1bfc7"><path d="M 180.421875 305.292969 C 146.871094 305.292969 119.671875 332.492188 119.671875 366.039062 C 119.671875 399.589844 146.871094 426.789062 180.421875 426.789062 C 213.972656 426.789062 241.167969 399.589844 241.167969 366.039062 C 241.167969 332.492188 213.972656 305.292969 180.421875 305.292969 Z M 180.421875 305.292969 " clip-rule="nonzero"/></clipPath></defs><g fill="#4e4f51" fill-opacity="1"><g transform="translate(508.935417, 415.825392)"><g><path d="M 203.136719 -66.472656 C 203.136719 -77.988281 199.421875 -89.128906 192.738281 -99.527344 C 185.683594 -109.925781 176.398438 -118.09375 165.257812 -123.664062 C 158.945312 -126.636719 152.257812 -129.234375 144.832031 -131.09375 C 137.40625 -132.578125 127.75 -134.433594 116.238281 -135.917969 C 111.78125 -136.289062 105.839844 -137.40625 98.039062 -138.890625 C 89.871094 -140.375 83.929688 -141.863281 79.84375 -144.089844 C 73.160156 -147.058594 67.589844 -151.144531 63.132812 -157.085938 C 58.675781 -163.027344 56.449219 -168.972656 56.449219 -174.914062 C 56.449219 -181.597656 59.046875 -188.28125 64.246094 -194.222656 C 69.445312 -199.792969 76.5 -204.25 85.414062 -207.964844 C 94.328125 -211.308594 103.980469 -213.164062 114.378906 -213.164062 C 124.035156 -213.164062 133.691406 -211.308594 142.976562 -207.964844 C 151.886719 -204.25 158.945312 -199.792969 164.144531 -193.851562 C 169.34375 -187.910156 171.941406 -181.597656 171.941406 -174.914062 L 200.910156 -191.253906 C 196.082031 -204.621094 187.539062 -215.761719 175.285156 -225.417969 C 166.742188 -231.359375 157.457031 -236.1875 147.058594 -239.53125 C 136.664062 -242.5 125.519531 -244.359375 114.378906 -244.359375 C 90.613281 -244.359375 70.1875 -238.046875 52.734375 -225.417969 C 43.820312 -218.734375 37.136719 -211.308594 32.308594 -202.394531 C 27.480469 -193.480469 25.253906 -184.570312 25.253906 -174.914062 C 25.253906 -162.65625 28.59375 -151.144531 36.023438 -140.746094 C 43.449219 -130.347656 53.476562 -122.179688 66.101562 -116.238281 C 75.757812 -111.039062 91.355469 -107.324219 112.152344 -105.46875 C 130.71875 -103.238281 143.347656 -100.269531 150.402344 -96.554688 C 157.085938 -92.839844 162.65625 -88.011719 166.371094 -82.8125 C 170.085938 -77.617188 171.941406 -72.042969 171.941406 -66.472656 C 171.941406 -59.417969 169.34375 -53.105469 164.144531 -47.535156 C 158.945312 -41.59375 151.886719 -36.765625 142.976562 -33.050781 C 134.0625 -29.335938 124.40625 -27.851562 114.378906 -27.851562 C 103.980469 -27.851562 94.699219 -29.710938 85.785156 -33.421875 C 76.871094 -36.765625 69.445312 -41.59375 64.246094 -47.535156 C 59.046875 -53.476562 56.449219 -59.789062 56.449219 -66.472656 L 27.480469 -50.132812 C 31.9375 -35.28125 41.964844 -22.652344 57.191406 -12.253906 C 72.417969 -1.855469 91.355469 2.972656 114.378906 2.972656 C 125.519531 2.972656 136.664062 1.484375 147.058594 -1.855469 C 157.457031 -4.828125 167.113281 -9.65625 175.285156 -15.96875 C 184.195312 -22.28125 190.882812 -29.710938 195.710938 -38.621094 C 200.535156 -47.535156 203.136719 -56.820312 203.136719 -66.472656 Z M 203.136719 -66.472656 "/></g></g></g><g fill="#4e4f51" fill-opacity="1"><g transform="translate(706.871861, 415.825392)"><g><path d="M 183.824219 -46.792969 L 204.25 0 L 238.046875 0 L 130.71875 -244.359375 L 17.453125 0 L 51.621094 0 L 73.160156 -46.792969 Z M 170.457031 -77.617188 L 87.269531 -77.617188 L 129.605469 -169.34375 Z M 170.457031 -77.617188 "/></g></g></g><g fill="#4e4f51" fill-opacity="1"><g transform="translate(929.689732, 415.825392)"><g><path d="M 31.566406 -241.757812 L 31.566406 0 L 63.132812 0 L 63.132812 -105.46875 L 157.085938 -105.46875 L 157.085938 -136.664062 L 63.132812 -136.664062 L 63.132812 -210.5625 L 186.054688 -210.5625 L 186.054688 -241.757812 Z M 31.566406 -241.757812 "/></g></g></g><g fill="#4e4f51" fill-opacity="1"><g transform="translate(1111.657507, 415.825392)"><g><path d="M 31.566406 -241.757812 L 31.566406 0 L 186.054688 0 L 186.054688 -30.824219 L 62.390625 -30.824219 L 62.390625 -105.46875 L 157.085938 -105.46875 L 157.085938 -136.664062 L 62.390625 -136.664062 L 62.390625 -210.5625 L 186.054688 -210.5625 L 186.054688 -241.757812 Z M 31.566406 -241.757812 "/></g></g></g><g fill="#4e4f51" fill-opacity="1"><g transform="translate(489.61744, 715.387466)"><g><path d="M 31.566406 0 L 63.132812 0 L 63.132812 -98.410156 L 119.949219 -98.410156 C 130.347656 -98.410156 140.746094 -99.898438 150.402344 -103.609375 C 160.058594 -107.324219 168.972656 -112.152344 176.398438 -118.835938 C 184.195312 -125.519531 190.140625 -133.320312 194.59375 -142.234375 C 199.050781 -151.144531 201.28125 -160.429688 201.28125 -170.457031 C 201.28125 -180.113281 199.050781 -189.394531 194.59375 -198.308594 C 190.140625 -207.222656 184.195312 -215.019531 176.398438 -221.703125 C 168.972656 -228.019531 160.058594 -232.847656 150.402344 -236.558594 C 140.746094 -239.902344 130.347656 -241.757812 119.949219 -241.757812 L 31.566406 -241.757812 Z M 63.132812 -129.605469 L 62.390625 -210.5625 L 119.949219 -210.5625 C 128.863281 -210.5625 137.035156 -208.707031 144.832031 -204.992188 C 152.632812 -201.28125 158.945312 -196.453125 163.773438 -190.511719 C 168.226562 -184.195312 170.457031 -177.511719 170.457031 -170.457031 C 170.457031 -163.027344 167.855469 -155.972656 163.402344 -150.03125 C 158.945312 -143.71875 152.632812 -138.890625 145.203125 -135.175781 C 137.40625 -131.464844 128.863281 -129.605469 119.949219 -129.605469 Z M 63.132812 -129.605469 "/></g></g></g><g fill="#4e4f51" fill-opacity="1"><g transform="translate(679.755274, 715.387466)"><g><path d="M 183.824219 -46.792969 L 204.25 0 L 238.046875 0 L 130.71875 -244.359375 L 17.453125 0 L 51.621094 0 L 73.160156 -46.792969 Z M 170.457031 -77.617188 L 87.269531 -77.617188 L 129.605469 -169.34375 Z M 170.457031 -77.617188 "/></g></g></g><g fill="#4e4f51" fill-opacity="1"><g transform="translate(902.573146, 715.387466)"><g><path d="M 18.941406 -241.757812 L 18.941406 -210.5625 L 101.011719 -210.5625 L 101.011719 0 L 132.578125 0 L 132.578125 -210.5625 L 214.648438 -210.5625 L 214.648438 -241.757812 Z M 18.941406 -241.757812 "/></g></g></g><g fill="#4e4f51" fill-opacity="1"><g transform="translate(1103.851921, 715.387466)"><g><path d="M 63.503906 -105.46875 L 181.597656 -105.46875 L 181.96875 0 L 212.792969 0 L 212.792969 -241.757812 L 181.597656 -241.757812 L 181.597656 -136.664062 L 63.503906 -136.664062 L 63.503906 -241.757812 L 31.9375 -241.757812 L 31.9375 0 L 63.503906 0 Z M 63.503906 -105.46875 "/></g></g></g><g clip-path="url(#5ba3ee8148)"><g clip-path="url(#0d2741d02f)"><path fill="#74b7a0" d="M 9.902344 193.570312 L 455.753906 193.570312 L 455.753906 639.421875 L 9.902344 639.421875 Z M 9.902344 193.570312 " fill-opacity="1" fill-rule="nonzero"/></g></g><g clip-path="url(#ec81622fca)"><g clip-path="url(#97f1171970)"><path fill="#2e2e2e" d="M 28.671875 212.339844 L 436.984375 212.339844 L 436.984375 620.652344 L 28.671875 620.652344 Z M 28.671875 212.339844 " fill-opacity="1" fill-rule="nonzero"/></g></g><g clip-path="url(#f3c437dd74)"><g clip-path="url(#a2ea0d3db3)"><path fill="#74b7a0" d="M 90.1875 273.855469 L 375.464844 273.855469 L 375.464844 559.132812 L 90.1875 559.132812 Z M 90.1875 273.855469 " fill-opacity="1" fill-rule="nonzero"/></g></g><g clip-path="url(#88d9834158)"><g clip-path="url(#7e9a8b7079)"><path fill="#2e2e2e" d="M 98.53125 282.199219 L 340.710938 282.199219 L 340.710938 524.378906 L 98.53125 524.378906 Z M 98.53125 282.199219 " fill-opacity="1" fill-rule="nonzero"/></g></g><g clip-path="url(#460a5e0881)"><g clip-path="url(#a4cafb0a1e)"><path fill="#74b7a0" d="M 111.332031 292.21875 L 278.4375 292.21875 L 278.4375 459.324219 L 111.332031 459.324219 Z M 111.332031 292.21875 " fill-opacity="1" fill-rule="nonzero"/></g></g><g clip-path="url(#b407ccdfb5)"><g clip-path="url(#baf70adaad)"><path fill="#2e2e2e" d="M 119.671875 305.292969 L 241.167969 305.292969 L 241.167969 426.789062 L 119.671875 426.789062 Z M 119.671875 305.292969 " fill-opacity="1" fill-rule="nonzero"/></g></g><g fill="#4e4f51" fill-opacity="1"><g transform="translate(508.935417, 415.825392)"><g><path d="M 203.136719 -66.472656 C 203.136719 -77.988281 199.421875 -89.128906 192.738281 -99.527344 C 185.683594 -109.925781 176.398438 -118.09375 165.257812 -123.664062 C 158.945312 -126.636719 152.257812 -129.234375 144.832031 -131.09375 C 137.40625 -132.578125 127.75 -134.433594 116.238281 -135.917969 C 111.78125 -136.289062 105.839844 -137.40625 98.039062 -138.890625 C 89.871094 -140.375 83.929688 -141.863281 79.84375 -144.089844 C 73.160156 -147.058594 67.589844 -151.144531 63.132812 -157.085938 C 58.675781 -163.027344 56.449219 -168.972656 56.449219 -174.914062 C 56.449219 -181.597656 59.046875 -188.28125 64.246094 -194.222656 C 69.445312 -199.792969 76.5 -204.25 85.414062 -207.964844 C 94.328125 -211.308594 103.980469 -213.164062 114.378906 -213.164062 C 124.035156 -213.164062 133.691406 -211.308594 142.976562 -207.964844 C 151.886719 -204.25 158.945312 -199.792969 164.144531 -193.851562 C 169.34375 -187.910156 171.941406 -181.597656 171.941406 -174.914062 L 200.910156 -191.253906 C 196.082031 -204.621094 187.539062 -215.761719 175.285156 -225.417969 C 166.742188 -231.359375 157.457031 -236.1875 147.058594 -239.53125 C 136.664062 -242.5 125.519531 -244.359375 114.378906 -244.359375 C 90.613281 -244.359375 70.1875 -238.046875 52.734375 -225.417969 C 43.820312 -218.734375 37.136719 -211.308594 32.308594 -202.394531 C 27.480469 -193.480469 25.253906 -184.570312 25.253906 -174.914062 C 25.253906 -162.65625 28.59375 -151.144531 36.023438 -140.746094 C 43.449219 -130.347656 53.476562 -122.179688 66.101562 -116.238281 C 75.757812 -111.039062 91.355469 -107.324219 112.152344 -105.46875 C 130.71875 -103.238281 143.347656 -100.269531 150.402344 -96.554688 C 157.085938 -92.839844 162.65625 -88.011719 166.371094 -82.8125 C 170.085938 -77.617188 171.941406 -72.042969 171.941406 -66.472656 C 171.941406 -59.417969 169.34375 -53.105469 164.144531 -47.535156 C 158.945312 -41.59375 151.886719 -36.765625 142.976562 -33.050781 C 134.0625 -29.335938 124.40625 -27.851562 114.378906 -27.851562 C 103.980469 -27.851562 94.699219 -29.710938 85.785156 -33.421875 C 76.871094 -36.765625 69.445312 -41.59375 64.246094 -47.535156 C 59.046875 -53.476562 56.449219 -59.789062 56.449219 -66.472656 L 27.480469 -50.132812 C 31.9375 -35.28125 41.964844 -22.652344 57.191406 -12.253906 C 72.417969 -1.855469 91.355469 2.972656 114.378906 2.972656 C 125.519531 2.972656 136.664062 1.484375 147.058594 -1.855469 C 157.457031 -4.828125 167.113281 -9.65625 175.285156 -15.96875 C 184.195312 -22.28125 190.882812 -29.710938 195.710938 -38.621094 C 200.535156 -47.535156 203.136719 -56.820312 203.136719 -66.472656 Z M 203.136719 -66.472656 "/></g></g></g><g fill="#4e4f51" fill-opacity="1"><g transform="translate(706.871861, 415.825392)"><g><path d="M 183.824219 -46.792969 L 204.25 0 L 238.046875 0 L 130.71875 -244.359375 L 17.453125 0 L 51.621094 0 L 73.160156 -46.792969 Z M 170.457031 -77.617188 L 87.269531 -77.617188 L 129.605469 -169.34375 Z M 170.457031 -77.617188 "/></g></g></g><g fill="#4e4f51" fill-opacity="1"><g transform="translate(929.689732, 415.825392)"><g><path d="M 31.566406 -241.757812 L 31.566406 0 L 63.132812 0 L 63.132812 -105.46875 L 157.085938 -105.46875 L 157.085938 -136.664062 L 63.132812 -136.664062 L 63.132812 -210.5625 L 186.054688 -210.5625 L 186.054688 -241.757812 Z M 31.566406 -241.757812 "/></g></g></g><g fill="#4e4f51" fill-opacity="1"><g transform="translate(1111.657507, 415.825392)"><g><path d="M 31.566406 -241.757812 L 31.566406 0 L 186.054688 0 L 186.054688 -30.824219 L 62.390625 -30.824219 L 62.390625 -105.46875 L 157.085938 -105.46875 L 157.085938 -136.664062 L 62.390625 -136.664062 L 62.390625 -210.5625 L 186.054688 -210.5625 L 186.054688 -241.757812 Z M 31.566406 -241.757812 "/></g></g></g><g fill="#4e4f51" fill-opacity="1"><g transform="translate(489.61744, 715.387466)"><g><path d="M 31.566406 0 L 63.132812 0 L 63.132812 -98.410156 L 119.949219 -98.410156 C 130.347656 -98.410156 140.746094 -99.898438 150.402344 -103.609375 C 160.058594 -107.324219 168.972656 -112.152344 176.398438 -118.835938 C 184.195312 -125.519531 190.140625 -133.320312 194.59375 -142.234375 C 199.050781 -151.144531 201.28125 -160.429688 201.28125 -170.457031 C 201.28125 -180.113281 199.050781 -189.394531 194.59375 -198.308594 C 190.140625 -207.222656 184.195312 -215.019531 176.398438 -221.703125 C 168.972656 -228.019531 160.058594 -232.847656 150.402344 -236.558594 C 140.746094 -239.902344 130.347656 -241.757812 119.949219 -241.757812 L 31.566406 -241.757812 Z M 63.132812 -129.605469 L 62.390625 -210.5625 L 119.949219 -210.5625 C 128.863281 -210.5625 137.035156 -208.707031 144.832031 -204.992188 C 152.632812 -201.28125 158.945312 -196.453125 163.773438 -190.511719 C 168.226562 -184.195312 170.457031 -177.511719 170.457031 -170.457031 C 170.457031 -163.027344 167.855469 -155.972656 163.402344 -150.03125 C 158.945312 -143.71875 152.632812 -138.890625 145.203125 -135.175781 C 137.40625 -131.464844 128.863281 -129.605469 119.949219 -129.605469 Z M 63.132812 -129.605469 "/></g></g></g><g fill="#4e4f51" fill-opacity="1"><g transform="translate(679.755274, 715.387466)"><g><path d="M 183.824219 -46.792969 L 204.25 0 L 238.046875 0 L 130.71875 -244.359375 L 17.453125 0 L 51.621094 0 L 73.160156 -46.792969 Z M 170.457031 -77.617188 L 87.269531 -77.617188 L 129.605469 -169.34375 Z M 170.457031 -77.617188 "/></g></g></g><g fill="#4e4f51" fill-opacity="1"><g transform="translate(902.573146, 715.387466)"><g><path d="M 18.941406 -241.757812 L 18.941406 -210.5625 L 101.011719 -210.5625 L 101.011719 0 L 132.578125 0 L 132.578125 -210.5625 L 214.648438 -210.5625 L 214.648438 -241.757812 Z M 18.941406 -241.757812 "/></g></g></g><g fill="#4e4f51" fill-opacity="1"><g transform="translate(1103.851921, 715.387466)"><g><path d="M 63.503906 -105.46875 L 181.597656 -105.46875 L 181.96875 0 L 212.792969 0 L 212.792969 -241.757812 L 181.597656 -241.757812 L 181.597656 -136.664062 L 63.503906 -136.664062 L 63.503906 -241.757812 L 31.9375 -241.757812 L 31.9375 0 L 63.503906 0 Z M 63.503906 -105.46875 "/></g></g></g><g clip-path="url(#016fa189ba)"><path fill="#74b7a0" d="M 516.289062 748.746094 L 894.070312 748.746094 L 894.070312 770.660156 L 516.289062 770.660156 Z M 516.289062 748.746094 " fill-opacity="1" fill-rule="nonzero"/></g><g clip-path="url(#ad4ce996b9)"><g clip-path="url(#aae026eb8c)"><path fill="#74b7a0" d="M 9.902344 193.570312 L 455.753906 193.570312 L 455.753906 639.421875 L 9.902344 639.421875 Z M 9.902344 193.570312 " fill-opacity="1" fill-rule="nonzero"/></g></g><g clip-path="url(#49d2272bf4)"><g clip-path="url(#61359ba929)"><path fill="#2e2e2e" d="M 28.671875 212.339844 L 436.984375 212.339844 L 436.984375 620.652344 L 28.671875 620.652344 Z M 28.671875 212.339844 " fill-opacity="1" fill-rule="nonzero"/></g></g><g clip-path="url(#dbe4b6d478)"><g clip-path="url(#cb5c8ce7c3)"><path fill="#74b7a0" d="M 90.1875 273.855469 L 375.464844 273.855469 L 375.464844 559.132812 L 90.1875 559.132812 Z M 90.1875 273.855469 " fill-opacity="1" fill-rule="nonzero"/></g></g><g fill="#74b7a0" fill-opacity="1"><g transform="translate(1007.751023, 768.620421)"><g/></g></g><g fill="#74b7a0" fill-opacity="1"><g transform="translate(1015.13542, 768.620421)"><g><path d="M 1 0 L 11.414062 0 C 15.914062 0 19.167969 -2.25 19.886719 -5.785156 C 20.386719 -8.222656 19.511719 -10.164062 17.699219 -11.132812 C 19.574219 -12.101562 20.792969 -13.695312 21.167969 -15.664062 C 21.917969 -19.324219 19.417969 -21.886719 15.007812 -21.886719 L 5.378906 -21.886719 Z M 6.722656 -3.941406 L 7.785156 -9.191406 L 12.414062 -9.191406 C 14.320312 -9.191406 15.226562 -8.222656 14.914062 -6.660156 C 14.570312 -4.972656 13.226562 -3.941406 11.257812 -3.941406 Z M 8.535156 -12.976562 L 9.535156 -17.949219 L 13.664062 -17.949219 C 15.539062 -17.949219 16.355469 -17.074219 16.070312 -15.539062 C 15.757812 -13.914062 14.476562 -12.976562 12.570312 -12.976562 Z M 8.535156 -12.976562 "/></g></g></g><g fill="#74b7a0" fill-opacity="1"><g transform="translate(1036.670931, 768.620421)"><g><path d="M 1 0 L 15.726562 0 L 16.574219 -4.222656 L 6.878906 -4.222656 L 7.847656 -9.003906 L 16.355469 -9.003906 L 17.199219 -13.164062 L 8.660156 -13.164062 L 9.566406 -17.699219 L 18.949219 -17.699219 L 19.761719 -21.886719 L 5.378906 -21.886719 Z M 1 0 "/></g></g></g><g fill="#74b7a0" fill-opacity="1"><g transform="translate(1055.643428, 768.620421)"><g/></g></g><g fill="#74b7a0" fill-opacity="1"><g transform="translate(1062.988639, 768.620421)"><g><path d="M 6.628906 0 L 11.601562 0 L 13.132812 -7.566406 L 24.109375 -21.886719 L 18.011719 -21.886719 L 14.257812 -16.824219 L 11.289062 -12.851562 L 9.914062 -16.824219 L 8.222656 -21.886719 L 3.03125 -21.886719 L 8.222656 -7.878906 Z M 6.628906 0 "/></g></g></g><g fill="#74b7a0" fill-opacity="1"><g transform="translate(1084.617897, 768.620421)"><g><path d="M 11.726562 0.4375 C 18.386719 0.4375 23.890625 -4.066406 25.203125 -10.570312 C 26.546875 -17.417969 22.480469 -22.324219 15.414062 -22.324219 C 8.753906 -22.324219 3.253906 -17.824219 1.9375 -11.320312 C 0.59375 -4.472656 4.660156 0.4375 11.726562 0.4375 Z M 6.972656 -10.851562 C 7.753906 -14.820312 11.101562 -17.605469 15.007812 -17.605469 C 18.824219 -17.605469 20.949219 -14.945312 20.167969 -11.039062 C 19.355469 -7.066406 16.039062 -4.285156 12.132812 -4.285156 C 8.285156 -4.285156 6.191406 -6.941406 6.972656 -10.851562 Z M 6.972656 -10.851562 "/></g></g></g><g fill="#74b7a0" fill-opacity="1"><g transform="translate(1110.654273, 768.620421)"><g><path d="M 10.320312 0.4375 C 16.007812 0.4375 19.730469 -2.90625 20.917969 -8.816406 L 23.515625 -21.886719 L 18.449219 -21.886719 L 15.945312 -9.410156 C 15.289062 -6.035156 13.539062 -4.285156 10.726562 -4.285156 C 8.035156 -4.285156 7.035156 -5.910156 7.691406 -9.285156 L 10.226562 -21.886719 L 5.160156 -21.886719 L 2.625 -9.222656 C 1.4375 -3.347656 4.441406 0.4375 10.320312 0.4375 Z M 10.320312 0.4375 "/></g></g></g><g fill="#74b7a0" fill-opacity="1"><g transform="translate(1133.846348, 768.620421)"><g><path d="M 1 0 L 6.003906 0 L 7.378906 -6.816406 L 10.726562 -6.816406 L 13.289062 0 L 18.886719 0 L 15.914062 -7.535156 C 18.761719 -8.628906 20.699219 -10.882812 21.324219 -13.976562 C 22.292969 -18.761719 19.605469 -21.886719 14.445312 -21.886719 L 5.378906 -21.886719 Z M 8.128906 -11.007812 L 9.472656 -17.636719 L 13.132812 -17.636719 C 15.789062 -17.636719 16.761719 -16.417969 16.324219 -14.382812 C 15.882812 -12.257812 14.320312 -11.007812 11.695312 -11.007812 Z M 8.128906 -11.007812 "/></g></g></g><g fill="#74b7a0" fill-opacity="1"><g transform="translate(1155.819436, 768.620421)"><g/></g></g><g fill="#74b7a0" fill-opacity="1"><g transform="translate(1163.164647, 768.620421)"><g><path d="M 1 0 L 15.726562 0 L 16.574219 -4.222656 L 6.878906 -4.222656 L 7.847656 -9.003906 L 16.355469 -9.003906 L 17.199219 -13.164062 L 8.660156 -13.164062 L 9.566406 -17.699219 L 18.949219 -17.699219 L 19.761719 -21.886719 L 5.378906 -21.886719 Z M 1 0 "/></g></g></g><g fill="#74b7a0" fill-opacity="1"><g transform="translate(1182.137144, 768.620421)"><g><path d="M 6.628906 0 L 11.601562 0 L 13.132812 -7.566406 L 24.109375 -21.886719 L 18.011719 -21.886719 L 14.257812 -16.824219 L 11.289062 -12.851562 L 9.914062 -16.824219 L 8.222656 -21.886719 L 3.03125 -21.886719 L 8.222656 -7.878906 Z M 6.628906 0 "/></g></g></g><g fill="#74b7a0" fill-opacity="1"><g transform="translate(1203.766402, 768.620421)"><g><path d="M 1 0 L 15.726562 0 L 16.574219 -4.222656 L 6.878906 -4.222656 L 7.847656 -9.003906 L 16.355469 -9.003906 L 17.199219 -13.164062 L 8.660156 -13.164062 L 9.566406 -17.699219 L 18.949219 -17.699219 L 19.761719 -21.886719 L 5.378906 -21.886719 Z M 1 0 "/></g></g></g><g fill="#74b7a0" fill-opacity="1"><g transform="translate(1222.738899, 768.620421)"><g><path d="M 8.847656 0.4375 C 14.101562 0.4375 17.386719 -1.90625 18.105469 -5.628906 C 18.824219 -9.285156 16.636719 -11.789062 11.726562 -12.882812 C 8.660156 -13.570312 7.660156 -14.445312 8.003906 -16.070312 C 8.253906 -17.355469 9.664062 -18.292969 11.695312 -18.292969 C 14.132812 -18.292969 15.132812 -16.980469 14.789062 -15.164062 L 19.605469 -15.164062 C 20.261719 -19.511719 17.386719 -22.324219 12.070312 -22.324219 C 7.003906 -22.324219 3.816406 -20.011719 3.09375 -16.417969 C 2.3125 -12.476562 4.691406 -10.132812 9.503906 -9.128906 C 12.476562 -8.503906 13.414062 -7.535156 13.101562 -5.941406 C 12.820312 -4.566406 11.382812 -3.660156 9.191406 -3.660156 C 6.753906 -3.660156 5.628906 -4.878906 5.972656 -6.941406 L 1.15625 -6.941406 C 0.28125 -2.375 3.285156 0.4375 8.847656 0.4375 Z M 8.847656 0.4375 "/></g></g></g><g clip-path="url(#d69ed06403)"><g clip-path="url(#87a47cc20b)"><path fill="#2e2e2e" d="M 98.53125 282.199219 L 340.710938 282.199219 L 340.710938 524.378906 L 98.53125 524.378906 Z M 98.53125 282.199219 " fill-opacity="1" fill-rule="nonzero"/></g></g><g clip-path="url(#a9655502c3)"><g clip-path="url(#9942c46251)"><path fill="#74b7a0" d="M 111.332031 292.21875 L 278.4375 292.21875 L 278.4375 459.324219 L 111.332031 459.324219 Z M 111.332031 292.21875 " fill-opacity="1" fill-rule="nonzero"/></g></g><g clip-path="url(#06d942fb75)"><g clip-path="url(#9a0cd1bfc7)"><path fill="#2e2e2e" d="M 119.671875 305.292969 L 241.167969 305.292969 L 241.167969 426.789062 L 119.671875 426.789062 Z M 119.671875 305.292969 " fill-opacity="1" fill-rule="nonzero"/></g></g></svg>