<?xml version="1.0" encoding="UTF-8"?>
<!--Generator: Apple Native CoreSVG 232.5-->
<!DOCTYPE svg
PUBLIC "-//W3C//DTD SVG 1.1//EN"
       "http://www.w3.org/Graphics/SVG/1.1/DTD/svg11.dtd">
<svg version="1.1" xmlns="http://www.w3.org/2000/svg" xmlns:xlink="http://www.w3.org/1999/xlink" width="44.751" height="52.9541">
 <g>
  <rect height="52.9541" opacity="0" width="44.751" x="0" y="0"/>
  <path d="M36.958 18.3105L43.4033 26.3672C44.1797 27.3193 44.3848 28.0664 44.3848 29.6191L44.3848 40.5762C44.3848 44.3115 42.4658 46.2305 38.6719 46.2305L5.69824 46.2305C1.91895 46.2305 0 44.3262 0 40.5762L0 29.6191C0 28.0664 0.219727 27.3047 0.966797 26.3672L7.38281 18.3545C9.58008 15.6738 10.4297 15.0732 13.5645 15.0732L18.0176 15.0732L18.0176 17.3584L13.3594 17.3584C11.9238 17.3584 11.0303 17.666 9.93164 19.0283L3.33984 27.334C2.72461 28.125 2.90039 28.5205 3.83789 28.5205L16.3037 28.5205C17.168 28.5205 17.5928 29.165 17.5928 29.8828L17.5928 29.9707C17.5928 32.373 19.4385 34.6875 22.1924 34.6875C24.9316 34.6875 26.792 32.373 26.792 29.9707L26.792 29.8828C26.792 29.165 27.2021 28.5205 28.0811 28.5205L40.5615 28.5205C41.4697 28.5205 41.7041 28.1689 41.0303 27.334L34.4092 18.9844C33.3545 17.6514 32.4609 17.3584 31.0254 17.3584L26.3672 17.3584L26.3672 15.0732L30.8057 15.0732C33.9551 15.0732 34.8193 15.6885 36.958 18.3105ZM2.59277 30.8936L2.59277 40.4443C2.59277 42.5391 3.70605 43.623 5.75684 43.623L38.6279 43.623C40.6348 43.623 41.7773 42.5391 41.7773 40.4443L41.7773 30.8936L29.2529 30.8936C28.8867 34.4678 25.957 37.0898 22.1924 37.0898C18.4277 37.0898 15.4834 34.4824 15.1172 30.8936Z" fill="#000000"/>
  <path d="M22.1924 30.5127C22.8809 30.5127 23.4668 29.9414 23.4668 29.2529L23.4668 9.25781L23.3789 6.47461L24.917 8.07129L27.9932 11.2939C28.2275 11.5576 28.5645 11.6895 28.8721 11.6895C29.5312 11.6895 30.0439 11.2061 30.0439 10.5469C30.0439 10.21 29.9121 9.94629 29.6631 9.69727L23.1152 3.3252C22.8076 3.00293 22.5146 2.90039 22.1924 2.90039C21.8555 2.90039 21.5771 3.00293 21.2549 3.3252L14.707 9.69727C14.458 9.94629 14.3262 10.21 14.3262 10.5469C14.3262 11.2061 14.8096 11.6895 15.4834 11.6895C15.791 11.6895 16.1426 11.5576 16.377 11.2939L19.4531 8.07129L21.0059 6.47461L20.9033 9.25781L20.9033 29.2529C20.9033 29.9414 21.4893 30.5127 22.1924 30.5127Z" fill="#0a84ff"/>
 </g>
</svg>
