<?xml version="1.0" encoding="UTF-8"?>
<!--Generator: Apple Native CoreSVG 232.5-->
<!DOCTYPE svg
PUBLIC "-//W3C//DTD SVG 1.1//EN"
       "http://www.w3.org/Graphics/SVG/1.1/DTD/svg11.dtd">
<svg version="1.1" xmlns="http://www.w3.org/2000/svg" xmlns:xlink="http://www.w3.org/1999/xlink" width="57.4365" height="43.2861">
 <g>
  <rect height="43.2861" opacity="0" width="57.4365" x="0" y="0"/>
  <path d="M47.6221 21.6357C47.6221 32.0654 38.9795 40.708 28.5352 40.708C25.7982 40.708 23.1843 40.1128 20.8242 39.0338C21.4125 38.3419 21.92 37.5805 22.3254 36.761C24.2353 37.5516 26.3328 37.9834 28.5352 37.9834C37.6025 37.9834 44.8828 30.6885 44.8828 21.6357C44.8828 12.5684 37.5879 5.28809 28.5205 5.28809C20.1234 5.28809 13.264 11.552 12.325 19.6993C12.1556 19.6767 11.9815 19.6729 11.8066 19.6729C11.0361 19.6729 10.2817 19.7484 9.55221 19.8973C10.4372 10.2483 18.6763 2.54883 28.5205 2.54883C38.9648 2.54883 47.6221 11.1914 47.6221 21.6357ZM38.3789 15.4688C38.3789 15.9814 38.0713 16.4062 37.5732 16.5381C36.9727 16.7432 32.6367 17.2266 32.0947 17.3291C31.5527 17.4463 31.2305 17.8857 31.2305 18.5449C31.2305 19.541 31.2305 22.6904 31.4502 24.1406C31.6699 25.5615 33.3545 32.4463 33.4131 32.7393C33.6035 33.4717 33.1787 34.1309 32.4316 34.1309C31.9043 34.1309 31.5234 33.8379 31.333 33.1348C30.9961 31.7285 29.7803 26.9678 29.4434 25.8252C29.1797 25.0049 28.9746 24.6973 28.5205 24.6973C28.0518 24.6973 27.8467 25.0049 27.6123 25.8252C27.2168 26.9824 26.0303 31.7432 25.6934 33.1348C25.5029 33.8379 25.1221 34.1309 24.5947 34.1309C23.8623 34.1309 23.4082 33.4717 23.6133 32.7393C23.6865 32.4463 25.3418 25.5615 25.5762 24.1406C25.8252 22.6904 25.8252 19.541 25.8252 18.5449C25.7959 17.8857 25.4736 17.4316 24.9316 17.3291C24.3896 17.2266 20.0537 16.7139 19.4531 16.5381C18.9551 16.4209 18.6475 15.9814 18.6475 15.4688C18.6475 14.7803 19.1309 14.3848 19.6143 14.3848C19.79 14.3848 19.9658 14.4287 20.127 14.458C21.9727 14.7363 25.8252 15.1904 28.5205 15.1904C31.2305 15.1904 35.0537 14.7363 36.8994 14.458C37.0605 14.4287 37.2363 14.3848 37.4121 14.3848C37.8662 14.3848 38.3789 14.7803 38.3789 15.4688ZM30.9814 11.4697C30.9814 12.8174 29.8828 13.9453 28.5205 13.9453C27.1436 13.9453 26.0449 12.8174 26.0449 11.4697C26.0449 10.0928 27.1436 8.99414 28.5205 8.99414C29.8828 8.99414 30.9814 10.0928 30.9814 11.4697Z" fill="#000000"/>
  <path d="M21.2842 31.4795C21.2842 36.665 16.9482 40.957 11.8066 40.957C6.62109 40.957 2.3291 36.6943 2.3291 31.4795C2.3291 26.2939 6.62109 22.002 11.8066 22.002C17.0068 22.002 21.2842 26.2793 21.2842 31.4795ZM11.0156 27.4072L8.8623 29.4727C8.81836 29.5166 8.77441 29.5312 8.71582 29.5312L7.26562 29.5312C6.65039 29.5312 6.29883 29.8828 6.29883 30.542L6.29883 32.4023C6.29883 33.0615 6.65039 33.4131 7.26562 33.4131L8.71582 33.4131C8.77441 33.4131 8.83301 33.4277 8.8623 33.4717L11.0156 35.5225C11.2207 35.6982 11.3965 35.7861 11.6162 35.7861C11.9092 35.7861 12.1143 35.5664 12.1143 35.2734L12.1143 27.6416C12.1143 27.3486 11.9092 27.1289 11.6162 27.1289C11.3965 27.1289 11.2207 27.2168 11.0156 27.4072ZM15.7178 27.9199C15.4541 28.0957 15.3955 28.4326 15.6006 28.7109C16.1279 29.502 16.4062 30.4688 16.4062 31.4648C16.4062 32.5049 16.1279 33.457 15.6006 34.2041C15.4248 34.4531 15.4541 34.8047 15.7031 35.0098C15.9521 35.1709 16.2891 35.1123 16.4941 34.8633C17.1533 33.9551 17.5195 32.7393 17.5195 31.4648C17.5195 30.1611 17.1533 28.96 16.4795 28.0518C16.2744 27.8027 15.9668 27.7588 15.7178 27.9199ZM13.8135 29.1943C13.5352 29.3701 13.4912 29.7803 13.7109 30.0293C13.96 30.3955 14.1064 30.9229 14.1064 31.4648C14.1064 32.0068 13.96 32.5049 13.6963 32.9004C13.4912 33.1641 13.5352 33.501 13.7842 33.6914C14.0186 33.8818 14.3701 33.8379 14.5752 33.5742C14.9854 33.0176 15.2344 32.2412 15.2344 31.4648C15.2344 30.7031 15 29.9268 14.6045 29.3701C14.4141 29.0918 14.0625 29.0332 13.8135 29.1943Z" fill="#5e5ce6"/>
 </g>
</svg>
